<?xml version="1.0" encoding="utf-8"?>
<!-- Generator: Adobe Illustrator 23.0.4, SVG Export Plug-In . SVG Version: 6.00 Build 0)  -->
<svg version="1.1" id="Layer_1" xmlns="http://www.w3.org/2000/svg" xmlns:xlink="http://www.w3.org/1999/xlink" x="0px" y="0px"
	 viewBox="0 0 627 507" style="enable-background:new 0 0 627 507;" xml:space="preserve">
<style type="text/css">
	.st0{font-family:'PTSans-CaptionBold';}
	.st1{font-size:60.4555px;}
	.st2{font-family:'Arial-BoldMT';}
	.st3{font-size:32.2184px;}
	.st4{fill:#2A22A9;}
	.st5{fill:url(#SVGID_1_);}
	.st6{fill:url(#SVGID_2_);}
	.st7{fill:#ABABAB;}
	.st8{fill:#FEFEFE;}
	.st9{fill:#DB102D;}
	.st10{fill:#FBCF17;}
	.st11{fill:#FBD01A;}
	.st12{fill:#0041B7;}
</style>
<path d="M377.6,53.3c-5-3.3-11.1-5.3-17.5-5.3c-17.8,0-32.2,14.6-32.2,32.7s14.4,32.7,32.2,32.7c10.7,0,20.2-5.3,26-13.5H383
	c-3.6,6.2-10.9,10.5-19.3,10.5c-0.1,0-0.3,0-0.4,0H363c-3.1,0-5.7-2.5-5.7-5.7V56c0-3.1,2.5-5.7,5.7-5.7h0.9c10.5,0,19,9.7,19,21.7
	c0,0.7,0,1.3-0.1,1.9h2.7V48.4L377.6,53.3z"/>
<path d="M548.4,53.3c-5-3.3-11.1-5.3-17.5-5.3c-17.8,0-32.2,14.6-32.2,32.7s14.4,32.7,32.2,32.7c10.7,0,20.2-5.3,26-13.5h-3.1
	c-3.6,6.2-10.9,10.5-19.3,10.5c-0.1,0-0.3,0-0.4,0h-0.2c-3.1,0-5.7-2.5-5.7-5.7V56c0-3.1,2.5-5.7,5.7-5.7h0.9c10.5,0,19,9.7,19,21.7
	c0,0.7,0,1.3-0.1,1.9h2.7V48.4L548.4,53.3z"/>
<text transform="matrix(1 0 0 1 416.6768 110.3262)" class="st0 st1">&amp;</text>
<text transform="matrix(0.975 0 0 1 88.8037 325.207)" class="st2 st3">International</text>
<text transform="matrix(0.975 0 0 1 88.8037 363.8667)" class="st2 st3">Human Resource</text>
<text transform="matrix(0.975 0 0 1 88.8037 402.5269)" class="st2 st3">Management Services</text>
<path class="st4" d="M445.2,162.9c0,0-3.9,8.4-9.3,9.6c-5.4,1.2-16.7,2.2-18.9,1.7c0,0-0.7,6.1-7.5,9.3c-6.7,3.2-15.4,2.8-15.4,2.8
	s1.8,6.7,0,10.4s-6.1,5.2-6.1,5.2s3,5.4,1.6,8.8c-1.5,3.4-4.3,7.1-7.9,7.7c0,0,11.2,3.7,15.8-7.1c0,0,25,5.4,24.8-6.8
	c0,0,20.9,4,21.6-6.7c0,0,16.7,4.9,17.8-1.8c0,0,45,4.5,61.7-15.5C523.4,180.4,473.8,175.6,445.2,162.9z"/>
<g>
	
		<linearGradient id="SVGID_1_" gradientUnits="userSpaceOnUse" x1="172.2" y1="353.7" x2="282.1" y2="353.7" gradientTransform="matrix(1 0 0 -1 0 480)">
		<stop  offset="0" style="stop-color:#FEDF01"/>
		<stop  offset="0.6943" style="stop-color:#FFC600"/>
		<stop  offset="1" style="stop-color:#FCCD03"/>
	</linearGradient>
	<path class="st5" d="M172.2,129.2c0,0,7.4-16.6,29.8-16.6s38,1.5,51,1.7c10.6,0.2,18-8.9,22.8-13.5l6.3,23.1
		c0,0-8.2,12.8-19.7,13.3c-15.5,0.7-32.7-1-44.8-1.4c-12-0.5-24.9-2.1-39,16L172.2,129.2z"/>
	<path d="M159.7,85.2c0,0,6.8-16.6,29.2-16.6s42.2,5,52.5,2.2c10.3-2.7,17.3-10.7,22.1-15.4l6.3,23.1c0,0-8.7,10-19.2,14.8
		c-9.7,4.4-33.7-0.1-45.8-0.6c-12-0.5-24.4-4.4-38.5,13.7L159.7,85.2z"/>
	
		<linearGradient id="SVGID_2_" gradientUnits="userSpaceOnUse" x1="165.5" y1="376.7" x2="275.9" y2="376.7" gradientTransform="matrix(1 0 0 -1 0 480)">
		<stop  offset="0" style="stop-color:#F10109"/>
		<stop  offset="0.2691" style="stop-color:#FD0001"/>
		<stop  offset="0.6943" style="stop-color:#D30405"/>
		<stop  offset="1" style="stop-color:#D80301"/>
	</linearGradient>
	<path class="st6" d="M165.5,107.2c0,0,7-16.2,29.5-16.2s42.2,5,52.5,2.2c10.3-2.7,17.3-10.7,22.1-15.4l6.3,23.1
		c0,0-8.2,13-19.7,13.3s-32.7-1-44.8-1.4c-12-0.5-24.9-2.1-39,16L165.5,107.2z"/>
	<polygon class="st7" points="157.8,85.8 158.6,84.5 159.9,84.1 184.6,170.5 181.9,171.1 	"/>
</g>
<polygon class="st7" points="116.6,109.8 116.6,108.3 117.6,107.3 182.5,169.4 183.1,171.8 180.5,171.3 "/>
<polygon class="st8" points="116.6,109.8 105.9,117.2 102.5,160 106.8,166 113.5,167.2 157.9,158.3 166.7,158 "/>
<path class="st9" d="M166.7,158c0,0-40.9-5.9-59.9,8c0,0-5.3,15.9-12,23s-15.4,16.3-27.7,21.1l25.4,25.6c0,0,22.4-3.9,32.4-25.6
	S140.3,161.7,166.7,158z"/>
<path class="st4" d="M180.4,168.3c0.7,0.1,1.4,0,2,0.2c5.1,1.4,10.1,3,15.2,4.4c2.3,0.6,3.4-0.1,4.9-1.8c1.7-1.9,3.7-3.6,5.7-5.1
	c1.8-1.4,3.8-2.4,5.8-3.5c0.7-0.4,1.5-0.7,2.3-0.9c6-2.2,12.2-3,18.5-1.8c3.1,0.6,6.1,1.3,9.1,2.3c1.7,0.5,3.3,1.6,4.9,2.5
	c2.3,1.3,4.7,2.4,6.7,4c3.1,2.5,6.1,5.2,8.7,8.2c1.1,1.2,1.1,3.3,1.7,5c1.2,3.7,2.4,7.5,3.8,11.1c1.2,3.2,2.5,6.4,4.2,9.4
	c1.4,2.4,3.3,4.6,5,6.9c0.4,0.5,0.7,1,1.1,1.4c0.5,0.4,1,0.8,1.5,1.2c0.2-0.1,0.3-0.2,0.5-0.3c-0.2-0.6-0.4-1.3-0.7-1.7
	c-2.8-3.7-5.2-7.6-6.8-11.9c-1-2.9-1.8-6-3-8.9c-1.6-3.8-2.3-7.7-2.8-11.7c-0.4-3.8,0-7.6,0.2-11.4c0.1-1.5,0.3-3,0.8-4.3
	c1.2-3.3,2.3-6.7,3.9-9.8c1.2-2.3,3.1-4.2,4.8-6.3c0.5-0.7,1.1-1.4,1.8-1.9c1-0.9,2.1-1.7,3.1-2.7c2.8-2.7,6-4.7,9.5-6.3
	c4.6-2.1,9.1-4.4,14.1-5.4c2.3-0.4,4.5-1.6,6.8-2.1c3.9-0.9,7.8-1.5,11.7-2.3c9.3-2,18.8-2.8,28.3-3.4c8.2-0.5,16.4-1.5,24.6-1.6
	c17.3-0.3,34.5-0.4,51.8-0.2c14,0.1,28,0.8,41.9,1.2c6.1,0.2,12.3,0.3,18.4,0.3c6.7,0.1,13.4,0.3,20,0.1c7.6-0.2,15.1-0.6,22.7-1.1
	c4.3-0.3,8.7-1,13-1.6c1.3-0.2,2.5-0.6,3.8-0.9c0.3-0.1,0.8,0.1,1.1,0.2c-0.2,0.4-0.3,0.8-0.6,1.1c-0.8,0.8-1.6,1.6-2.5,2.3
	c-2.3,1.9-4.7,3.8-7.1,5.6c-1.6,1.2-3.2,2.3-5,3.2c-3.3,1.7-6.6,3.5-10.2,4.8c-6.6,2.4-13.4,3.6-20.2,4.7
	c-5.7,0.9-11.4,1.1-17.1,1.2c-2,0-3.3,0.8-4.2,2.4c-1.3,2.3-3.4,3.2-5.7,3.6c-3.9,0.7-7.8,1.6-11.8,1.1c-0.5-0.1-1.5,0.7-1.7,1.2
	c-0.8,2.9-3,4.5-5.3,6.1c-4,2.8-8.7,3-13.3,3.9c-1.3,0.2-2.6,0.2-3.9,0.3c-1.2,0.1-1.8,0.7-1.5,1.8c0.6,2.7-0.8,3.9-3,5.4
	c-4.5,2.9-9.7,3.4-14.7,4.3c-2.5,0.4-5.1,0.4-7.7,0.5c-1.2,0-1.9,0.5-1.9,1.7c-0.2,2.4-1.5,4-3.3,5.4c-6,4.7-12.8,5.7-20.1,4.7
	c-0.5-0.1-1.2,0-1.5,0.3c-0.2,0.2,0,1,0.2,1.4c2,3.6,2.8,7.3,2,11.3c-0.5,2.5-2.4,4.6-5.4,4.2c-0.2,0-0.5-0.1-0.7,0
	c-0.5,0.1-1,0.3-1.5,0.4c0.2,0.5,0.3,1,0.5,1.5c1.8,3,1.8,6.2,1.1,9.4c-0.5,2.1-4,4.4-6.3,4.5c-2,0.1-2.2,0.3-1.3,2.1
	c1.8,3.8,2,7.7,0.9,11.7c-0.2,0.8-0.7,1.5-1.3,2.1c-1.2,1.2-2.6,2.3-3.9,3.5c-0.3,0.3-0.4,1-0.3,1.4c0.9,2.9,1.2,5.6-0.4,8.4
	c-0.8,1.4-1.3,2.8-2.5,3.9c-1.3,1.1-2.7,1.9-4.4,2c-0.5,0-1.1,0.4-1.6,0.6c0.2,0.5,0.5,1,0.8,1.5c0.9,1.4,1.9,2.8,2.9,4.2
	c0.5,0.7,1.2,1.4,1.8,2.1c0.9,1.3,1.7,2.7,2.7,4c2,2.7,4.1,5.3,6,8.1c3.1,4.6,6.1,9.3,9.2,13.9c1.9,2.9,4,5.6,6,8.5
	c1.8,2.6,3.6,5.2,5.5,7.8c2.1,2.7,4.2,5.5,6.7,7.9c2.9,2.9,6,5.4,9.1,8c0.8,0.6,1.8,0.9,2.6,1.5c4,2.9,8,6,12.1,8.9
	c3.5,2.5,7,4.8,10.5,7.3c2.3,1.6,4.4,3.5,6.6,5.2c2.1,1.6,4.4,3.1,6.5,4.6c4.3,3,8.6,6,12.8,9.1c2.7,2,5.3,4,8.1,6
	c3,2.1,6.1,4.1,9.1,6.2c2.3,1.7,4.6,3.5,6.9,5.2c1.5,1,3,1.9,4.5,3c4.8,3.5,9.6,7.1,14.5,10.6c4.1,3,8.3,5.9,12.4,8.9
	c2.6,1.9,5,3.9,7.6,5.7c2.9,2.1,6,4.1,9,6.2c2.2,1.6,4.4,3.3,6.6,5c1.9,1.4,3.8,2.8,5.6,4.2c1.7,1.3,3.5,2.5,5.2,3.8
	c1.8,1.4,3.7,2.7,5.5,4.1c2.3,1.7,4.7,3.3,7,5.1c5.2,3.9,10.4,7.8,15.6,11.6c1.7,1.3,3.5,2.5,5.2,3.8c0.2,0.2,0.4,0.4,0.5,1
	c-0.6-0.1-1.3-0.1-1.8-0.4c-3.4-1.9-6.9-3.8-10.2-5.8s-6.5-4.1-9.8-6.1c-2.8-1.7-5.7-3.4-8.5-5.2c-2.5-1.6-5-3.4-7.5-5.1
	c-1.6-1.1-3.3-2-4.9-3c-3.7-2.4-7.3-4.8-10.9-7.2c-2-1.4-4.1-2.7-6.2-4c-2-1.4-4-2.8-6-4.2c-1.9-1.3-3.9-2.5-5.8-3.7
	c-0.3-0.2-0.6-0.5-0.9-0.8c-0.6-0.5-1.1-1-1.7-1.4c-1.9-1.2-3.8-2.4-5.7-3.6c-2.6-1.7-5.2-3.4-7.9-5.1c-1.1-0.7-2.2-1.4-3.2-2.1
	c-1.9-1.3-3.8-2.7-5.8-3.9c-1.7-1-3.4-1.9-5.1-3c-2.2-1.4-4.5-2.9-6.7-4.4c-0.8-0.5-1.5-1-2.3-1.5c-3.4-2-6.9-4-10.3-6.1
	c-2.6-1.6-5.2-3.3-7.8-4.9c-1.3-0.8-2.8-1.5-4.2-2.1c-2.6-1.2-5.2-2.5-7.8-3.7c-2.3-1.1-4.7-2.2-7.1-3.1c-2.5-1-5-1.7-7.7-1.3
	c-2.7,0.4-3.8,2.3-2.5,4.8c1.6,3.2,3.4,6.4,5.9,9c1.5,1.6,2.8,3.4,4.2,5.1c1.9,2.2,3.8,4.4,5.8,6.5c2.6,2.9,5.2,5.7,7.9,8.5
	c1.8,1.9,3.8,3.7,5.7,5.6c2.1,2.1,4.2,4.2,6.3,6.3c2.8,2.8,5.7,5.5,8.6,8.2c2.7,2.6,5.4,5.3,8.1,7.9c3.8,3.6,7.7,7.1,11.5,10.7
	c1.9,1.8,3.6,3.7,5.5,5.4c1.9,1.8,3.9,3.5,5.8,5.4c2.1,2,4.2,4,6.3,6c2.2,2.1,4.5,4.1,6.8,6.2c1.4,1.3,2.7,2.6,4.1,3.9
	c1.9,1.8,3.7,3.7,5.5,5.6c2,2,4.1,3.9,6.1,5.9c1.9,2,3.7,4,5.6,6c0.5,0.5,1.1,0.9,1.5,1.4c1.8,1.8,3.6,3.7,5.3,5.6
	c0.4,0.4,0.5,1.1,0.8,1.7c-0.1,0.1-0.2,0.2-0.3,0.3c-0.7-0.5-1.5-0.8-2.2-1.4c-2.2-1.8-4.3-3.8-6.4-5.6c-2.7-2.4-5.5-4.7-8.3-7
	c-4.1-3.4-8.2-6.8-12.3-10.2c-2.2-1.8-4.2-3.8-6.4-5.6c-2-1.8-4.2-3.5-6.2-5.2c-0.1-0.1-0.3-0.2-0.5-0.3c-4.2-3.7-8.5-7.5-12.7-11.2
	c-1.9-1.7-4-3.2-6-4.9c-1.8-1.6-3.6-3.2-5.4-4.9c-2-1.8-3.8-3.7-5.8-5.4c-2-1.7-4.2-3.3-6.2-5c-2.8-2.4-5.5-4.9-8.3-7.4
	c-2-1.8-4.1-3.4-6.1-5.1c-1.9-1.6-3.6-3.4-5.4-5.1c-2.2-2-4.5-3.8-6.7-5.7c-2.4-2.1-4.8-4.3-7.2-6.4c-4-3.5-8-6.9-12-10.4
	c-1.8-1.6-3.6-3.4-5.4-5.1c-0.6-0.5-1.4-1-2-1.5c-2.3-2.1-4.5-4.2-6.9-6.3c-2.3-2-4.6-3.9-6.9-5.9c-3.9-3.4-7.8-6.9-11.7-10.4
	c-2.3-2.1-4.8-4-7-6.2c-1.4-1.4-3.1-2.1-4.8-2.7c-4-1.5-7.9-3.2-11.9-4.8c-6.2-2.4-12.5-4.6-18.8-7c-4.1-1.5-8.3-2.6-12.1-4.5
	c-3.6-1.8-7.3-2.9-11-4.4c-6.3-2.5-12.5-5-18.8-7.7c-3.4-1.5-6.7-3.1-10.1-4.7c-1.2-0.5-2.4-1-3.6-1.5c-3.6-1.7-7.3-3.3-10.9-5
	c-2.7-1.3-5.4-2.6-8-4.2c-2.8-1.7-5.5-3.6-8.2-5.6s-5.5-4-7.9-6.3c-3.3-3-6.4-6.2-9.5-9.4c-2.4-2.5-4.6-5.2-6.8-7.9
	c-1.8-2.1-3.6-4.1-5.3-6.3c-1.2-1.5-2.4-3.2-3.5-4.8c-1.5-2-3-4-4.4-6c-0.9-1.2-1.6-2.6-2.4-3.8c-2.4-3.6-4.9-7.1-7.1-10.9
	c-3.2-5.4-6.3-10.9-9.3-16.4c-1.3-2.4-2.6-4.9-3.8-7.3c-1.4-2.7-2.7-5.5-4-8.2c-1.1-2.4-2-4.8-3.3-7.1c-1.4-2.4-3-4.8-4.8-7
	c-1.9-2.4-4.1-4.4-6.2-6.7c-1.7-1.9-3.4-3.8-5.1-5.7c-0.5-0.5-1-1-1.6-1.4C180.3,168.6,180.4,168.4,180.4,168.3z"/>
<path class="st10" d="M126.2,127.9L126.2,127.9c0.2,0.1,0.3,0.2,0.4,0.3c0.4,0.3,0.6,0.6,0.4,1v0.1c-0.1,0.7-0.1,1.4-0.2,2.1
	c-0.1,1-0.1,1.9-0.2,2.9c0,0.3,0,0.3,0.3,0.3l0,0c0.2-1.7,0.5-3.5,0.7-5.3c0.2,0.2,0.4,0.4,0.6,0.6v0.1c-0.1,0.3-0.1,0.6-0.2,0.9
	c-0.1,0.5-0.2,1-0.3,1.5s-0.2,0.9-0.3,1.4c-0.1,0.3-0.1,0.6-0.2,0.9c0.8,0.2,1.5,0.5,2.2,0.9c0.1-0.1,0.1-0.1,0.1-0.2
	c0.8-1.2,1.6-2.5,2.5-3.7l0.1-0.1c0.3,0,0.5,0,0.8,0c-0.2,0.3-0.4,0.5-0.6,0.8c-0.8,1-1.6,2.1-2.4,3.1c-0.3,0.3-0.3,0.3,0,0.6
	c0,0,0,0,0.1,0c0.3-0.4,0.7-0.8,1-1.2c0.9-1.1,1.8-2.1,2.8-3.2c0,0,0.1-0.1,0.2-0.1c0.4,0,0.7,0,1.1,0c0,0.2,0,0.4,0,0.6
	c0,0.3-0.1,0.5-0.3,0.7c-0.9,0.7-1.7,1.5-2.6,2.2c-0.5,0.4-1,0.9-1.5,1.3c-0.1,0.1-0.2,0.2,0,0.3c0.1,0.1,0.2,0.1,0.3,0
	c0.2-0.2,0.4-0.4,0.7-0.5c1-0.8,2.1-1.6,3.1-2.4c0.1-0.1,0.2-0.2,0.4-0.3c0,0.3,0,0.6-0.1,0.9l-0.1,0.1c-0.3,0.2-0.6,0.4-0.9,0.6
	c-0.9,0.6-1.9,1.3-2.8,1.9c-0.1,0.1-0.1,0.1-0.1,0.3c0.2,0.3,0.3,0.5,0.4,0.8c0.2,0.4,0.3,0.8,0.5,1.2c0.4-0.1,0.8-0.1,1.1-0.2
	c0.3-0.1,0.7-0.1,1-0.2c0.3-0.1,0.7-0.1,1-0.2c0.5-0.1,0.9-0.2,1.4-0.3c0.1,0,0.1,0,0.2,0c0.2,0.2,0.4,0.4,0.6,0.6
	c-1.8,0.2-3.5,0.5-5.2,0.7c0,0.2,0,0.3,0,0.4c0.4,0,0.7-0.1,1.1-0.1c0.8-0.1,1.7-0.1,2.5-0.2c0.6,0,1.2-0.1,1.9-0.1
	c0.1,0,0.2,0,0.3,0c0.2-0.1,0.3,0,0.4,0.1l0.1,0.1c0.2,0.1,0.4,0.3,0.5,0.4v0.1c0,0,0,0-0.1,0c-0.2,0.2-0.4,0.4-0.6,0.6
	c-0.1,0.1-0.2,0.1-0.3,0.1c-0.4,0-0.9-0.1-1.3-0.1c-0.5,0-0.9-0.1-1.4-0.1c-0.7,0-1.4-0.1-2-0.1h-0.1c-0.3,0-0.7-0.1-1-0.1
	c0,0.1,0,0.2,0,0.3s0.1,0.1,0.1,0.1c0.3,0.1,0.7,0.1,1,0.1c0.5,0.1,1.1,0.1,1.6,0.2c0.2,0,0.5,0.1,0.7,0.1c0.6,0.1,1.1,0.2,1.7,0.2
	c0,0,0.1,0,0.2,0c-0.2,0.2-0.4,0.4-0.5,0.6c0,0-0.1,0.1-0.2,0.1c-0.2,0-0.3-0.1-0.5-0.1c-0.4-0.1-0.7-0.2-1.1-0.2
	c-0.3-0.1-0.6-0.1-1-0.2c-0.4-0.1-0.7-0.2-1.1-0.2c-0.3-0.1-0.7-0.1-1-0.2c-0.1,0-0.2,0-0.2,0.1c-0.2,0.7-0.4,1.3-0.8,1.9
	c-0.1,0.2-0.1,0.2,0.1,0.3c1.2,0.8,2.5,1.6,3.7,2.5l0.1,0.1c0,0.3,0,0.6,0.1,0.9c-1.5-1.1-2.9-2.2-4.3-3.3c-0.1,0.1-0.2,0.2-0.3,0.3
	c0.7,0.6,1.3,1.2,2,1.8c0.8,0.7,1.6,1.4,2.4,2.1c0,0,0.1,0.1,0.1,0.2c0,0.3,0,0.7,0,1c-0.4,0-0.7,0-1,0c0,0-0.1,0-0.1-0.1
	c-1-1.2-2.1-2.4-3.1-3.5c-0.3-0.3-0.5-0.6-0.8-0.9c-0.1,0.1-0.2,0.1-0.2,0.2c0,0.1,0,0.2,0,0.2c0.8,1.1,1.6,2.1,2.4,3.2
	c0.2,0.3,0.5,0.6,0.7,1c-0.3,0-0.5,0-0.8,0c-0.1,0-0.2-0.1-0.2-0.1c-0.5-0.8-1.1-1.6-1.6-2.4c-0.3-0.5-0.7-1-1-1.5h-0.1
	c-0.6,0.4-1.3,0.7-2,0.8c-0.1,0-0.1,0.1-0.1,0.2c0.1,0.5,0.2,0.9,0.3,1.4s0.2,0.9,0.3,1.4s0.2,1,0.3,1.5c0,0.2,0.1,0.3-0.1,0.5
	c-0.1,0.1-0.2,0.2-0.3,0.2l-0.1,0.1c0-0.1-0.1-0.1-0.1-0.2c-0.1-0.7-0.2-1.4-0.3-2.1c-0.1-0.6-0.2-1.2-0.2-1.8c0-0.3-0.1-0.7-0.1-1
	c-0.1,0-0.3,0-0.4,0c0,0.5,0.1,0.9,0.1,1.3c0,0.6,0.1,1.2,0.1,1.8c0.1,0.9,0.1,1.8,0.2,2.6c0,0.1,0,0.2-0.1,0.2
	c-0.2,0.2-0.5,0.5-0.7,0.7h-0.1c-0.2-0.2-0.4-0.4-0.6-0.6c-0.1-0.1-0.2-0.2-0.1-0.4c0-0.5,0.1-1,0.1-1.5c0.1-0.9,0.1-1.8,0.2-2.7
	c0-0.3,0.1-0.7,0.1-1c0-0.2,0-0.4,0-0.5c-0.1,0-0.3,0-0.4,0c-0.2,1.7-0.5,3.5-0.7,5.2h-0.1c-0.1-0.1-0.2-0.3-0.3-0.3
	c-0.3-0.2-0.2-0.4-0.2-0.7c0.1-0.5,0.2-1,0.3-1.5s0.2-0.9,0.3-1.4s0.2-0.9,0.3-1.4c-0.2,0-0.3,0-0.4-0.1c-0.6-0.2-1.2-0.4-1.7-0.8
	c-0.1-0.1-0.2-0.1-0.2,0c-0.7,1.1-1.4,2.2-2.2,3.3c-0.2,0.3-0.3,0.6-0.7,0.6l0,0c-0.2,0-0.4,0-0.6,0c1.1-1.4,2.2-2.8,3.2-4.2
	c-0.1-0.1-0.1-0.1-0.2-0.1c-0.1-0.1-0.2-0.1-0.2,0c-1.2,1.4-2.5,2.8-3.7,4.2c0,0.1-0.1,0.1-0.2,0.1c-0.3,0-0.7,0-1,0
	c0-0.3,0-0.6,0-0.9c0-0.1,0.1-0.2,0.1-0.3c0.2-0.2,0.4-0.4,0.6-0.5c1.1-1,2.2-1.9,3.3-2.9c0.2-0.1,0.3-0.3,0.4-0.4
	c-0.1-0.1-0.1-0.1-0.1-0.1c-0.1-0.2-0.2-0.2-0.4,0c-1.2,0.9-2.5,1.9-3.7,2.8c-0.1,0.1-0.2,0.1-0.3,0.2c0-0.3,0-0.5,0-0.8l0.1-0.1
	c1-0.6,1.9-1.3,2.9-1.9c0.3-0.2,0.7-0.4,1-0.7c-0.5-0.7-0.8-1.5-0.9-2.3c-0.2,0-0.3,0-0.4,0.1c-0.4,0.1-0.7,0.1-1,0.2
	c-0.3,0.1-0.7,0.1-1,0.2c-0.3,0.1-0.6,0.1-1,0.2c-0.3,0.1-0.7,0.1-1,0.2c-0.2,0.1-0.3,0-0.4-0.1c-0.1-0.1-0.3-0.3-0.4-0.4
	c0.3,0,0.6-0.1,0.8-0.1c0.3,0,0.6-0.1,0.9-0.1c0.2,0,0.4-0.1,0.6-0.1c0.5-0.1,1-0.1,1.5-0.2c0.3,0,0.7-0.1,1-0.1
	c0.1,0,0.3-0.1,0.4-0.1c0-0.4,0-0.4-0.4-0.4l0,0c-0.6,0-1.2,0.1-1.8,0.1s-1.3,0.1-1.9,0.1c-0.6,0-1.1,0.1-1.7,0.1
	c-0.1,0-0.2,0-0.2,0c-0.1-0.2-0.3-0.3-0.4-0.5l0,0l0,0c0,0,0,0-0.1-0.1l0,0l0,0c0,0,0,0-0.1-0.1l0,0l0,0c0-0.1,0-0.2,0-0.2
	c0.2-0.2,0.4-0.4,0.6-0.6c0.1-0.1,0.1-0.1,0.2-0.1c0.2,0,0.5,0,0.7,0.1c0.4,0,0.7,0,1.1,0.1c0.4,0,0.9,0.1,1.3,0.1
	c0.4,0,0.7,0,1.1,0.1c0.5,0,0.9,0,1.4,0.1c0.2,0,0.2-0.1,0.2-0.3s-0.1-0.2-0.2-0.2c-0.4-0.1-0.8-0.1-1.2-0.2c-0.5-0.1-1-0.1-1.6-0.2
	c-0.2,0-0.4-0.1-0.7-0.1s-0.7-0.1-1-0.2c-0.1,0-0.3-0.1-0.5-0.1c0.2-0.2,0.3-0.3,0.5-0.5c0.1-0.1,0.2-0.1,0.3-0.1
	c0.2,0,0.4,0.1,0.6,0.1c0.3,0.1,0.7,0.1,1,0.2c0.5,0.1,1.1,0.2,1.6,0.3c0.2,0,0.4,0.1,0.5,0.1c0.2,0,0.5,0.1,0.8,0.1
	c0.2-0.8,0.5-1.6,0.9-2.2l-0.1-0.1c-1.2-0.8-2.5-1.6-3.7-2.4c-0.1,0-0.2-0.1-0.2-0.2c0-0.3,0-0.5,0-0.8c0.1,0,0.1,0.1,0.1,0.1
	c1.3,1,2.7,2,4,3c0.2,0.2,0.2,0,0.3-0.1s0.1-0.2,0-0.2c-0.2-0.2-0.4-0.3-0.6-0.5c-1.2-1.1-2.5-2.2-3.7-3.2c-0.1,0-0.1-0.1-0.1-0.2
	c0-0.3,0-0.6,0-1c0.3,0,0.6,0,1,0c0.1,0,0.2,0.1,0.3,0.1c1.2,1.4,2.4,2.7,3.6,4.1c0.2,0.2,0.2,0.2,0.4,0l0.1-0.1
	c-1.1-1.4-2.1-2.7-3.2-4.1c0,0,0,0,0-0.1c0.2,0,0.4,0,0.6,0c0.1,0,0.2,0,0.3,0.1c0.8,1.3,1.7,2.6,2.6,3.8c0.7-0.4,1.4-0.7,2.2-0.9
	c0-0.1-0.1-0.3-0.1-0.4c-0.1-0.6-0.2-1.2-0.4-1.9c-0.1-0.7-0.3-1.5-0.4-2.2c0-0.1,0-0.2,0-0.2c0.2-0.2,0.3-0.4,0.5-0.6
	c0.2,1.8,0.5,3.6,0.7,5.3c0.5,0,0.4,0,0.4-0.4c-0.1-1-0.1-2-0.2-3c-0.1-0.8-0.1-1.6-0.2-2.5c0-0.1,0-0.2,0.1-0.3
	C125.8,128.3,126,128.1,126.2,127.9z"/>
<path class="st11" d="M116.8,114c0.5,0.4,1,0.8,1.5,1.3c0.2,0.2,0.4,0.2,0.7,0.1c0.5-0.3,1.1-0.6,1.7-0.9l0.1,0.1
	c-0.2,0.6-0.5,1.2-0.8,1.8c-0.2,0.3-0.1,0.4,0.1,0.6c0.5,0.4,0.9,0.9,1.4,1.4c-0.2,0-0.5,0-0.7-0.1c-0.1,0-0.2-0.1-0.3-0.1
	c-1.3-0.1-1.3-0.1-1.8,1c-0.2,0.4-0.3,0.7-0.5,1.2c-0.2-0.7-0.3-1.3-0.4-1.9c-0.1-0.5-0.3-0.6-0.7-0.7c-0.5-0.1-1.1-0.1-1.6-0.2
	c0,0-0.1,0-0.1-0.1c0.6-0.3,1.1-0.7,1.6-1c0.3-0.1,0.3-0.3,0.3-0.6c-0.1-0.5-0.2-0.9-0.3-1.4C117,114.3,116.9,114.1,116.8,114
	C116.7,114,116.7,114,116.8,114z"/>
<path class="st11" d="M155.1,150.4c0.5,0.4,1,0.8,1.5,1.3c0.2,0.2,0.4,0.2,0.7,0.1c0.5-0.3,1.1-0.6,1.7-0.9l0.1,0.1
	c-0.2,0.6-0.5,1.2-0.8,1.8c-0.2,0.3-0.1,0.4,0.1,0.6c0.5,0.4,0.9,0.9,1.4,1.4c-0.2,0-0.5,0-0.7-0.1c-0.1,0-0.2-0.1-0.3-0.1
	c-1.3-0.1-1.3-0.1-1.8,1c-0.2,0.4-0.3,0.7-0.5,1.2c-0.2-0.7-0.3-1.3-0.4-1.9c-0.1-0.5-0.3-0.6-0.7-0.7c-0.5-0.1-1.1-0.1-1.6-0.2
	c0,0-0.1,0-0.1-0.1c0.6-0.3,1.1-0.7,1.6-1c0.3-0.1,0.3-0.3,0.3-0.6c-0.1-0.5-0.2-0.9-0.3-1.4C155.3,150.7,155.2,150.5,155.1,150.4
	C155,150.4,155,150.4,155.1,150.4z"/>
<path class="st11" d="M111.9,154.2c0.5,0.4,1,0.8,1.5,1.3c0.2,0.2,0.4,0.2,0.7,0.1c0.5-0.3,1.1-0.6,1.7-0.9l0.1,0.1
	c-0.2,0.6-0.5,1.2-0.8,1.8c-0.2,0.3-0.1,0.4,0.1,0.6c0.5,0.4,0.9,0.9,1.4,1.4c-0.2,0-0.5,0-0.7-0.1c-0.1,0-0.2-0.1-0.3-0.1
	c-1.3-0.1-1.3-0.1-1.8,1c-0.2,0.4-0.3,0.7-0.5,1.2c-0.2-0.7-0.3-1.3-0.4-1.9c-0.1-0.5-0.3-0.6-0.7-0.7c-0.5-0.1-1.1-0.1-1.6-0.2
	c0,0-0.1,0-0.1-0.1c0.6-0.3,1.1-0.7,1.6-1c0.3-0.1,0.3-0.3,0.3-0.6c-0.1-0.5-0.2-0.9-0.3-1.4C112.1,154.5,112,154.3,111.9,154.2
	C111.8,154.2,111.8,154.2,111.9,154.2z"/>
<path class="st12" d="M116.6,109.8c0,0-14.7,2.9-9.8,56.3c0,0-2.7,15.4-13.7,26.6c-11,11.2-14.1,12.9-26.1,17.6l-24.9-23.9
	c0,0,13.9,0.4,26.1-17.2C80.5,151.4,79.1,120.1,116.6,109.8z"/>
</svg>
