<?xml version="1.0" encoding="utf-8"?>
<!-- Generator: Adobe Illustrator 23.0.4, SVG Export Plug-In . SVG Version: 6.00 Build 0)  -->
<svg version="1.1" id="Layer_1" xmlns="http://www.w3.org/2000/svg" xmlns:xlink="http://www.w3.org/1999/xlink" x="0px" y="0px"
	 viewBox="0 0 706 228.3" style="enable-background:new 0 0 706 228.3;" xml:space="preserve">
<style type="text/css">
	.st0{fill:none;}
	.st1{fill:#2A22A9;}
	.st2{enable-background:new    ;}
	.st3{fill:url(#SVGID_1_);}
	.st4{fill:url(#SVGID_2_);}
	.st5{fill:#ABABAB;}
	.st6{fill:#FEFEFE;}
	.st7{fill:#DB102D;}
	.st8{fill:#FBCF17;}
	.st9{fill:#FBD01A;}
	.st10{fill:#0041B7;}
</style>
<path class="st0" d="M229.4,158"/>
<path class="st0" d="M290.2,140.6c-1.2,0-2.3,0-3.5-0.1"/>
<path class="st1" d="M329.4,147.5c16.6,0,31.5-8.8,41.3-22.6h6.7c-12.2,16.7-32,27.6-54.3,27.6c-37.1,0-67.1-30-67.1-67.1
	s30-67.1,67.1-67.1c12.2,0,23.6,3.2,33.4,8.9l18.7-8.9v51.4h-5c0,0-1.4-28.2-18.8-37.6c-16.3-8.8-30.1-8.8-35.1-1.3v102.9
	c0,0,0,5,3.8,8.8C325,147.5,329.4,147.5,329.4,147.5z"/>
<path class="st1" d="M638,147.5c16.6,0,31.5-8.8,41.3-22.6h6.7c-12.2,16.7-32,27.6-54.3,27.6c-37.1,0-67.1-30-67.1-67.1
	s30-67.1,67.1-67.1c12.2,0,23.6,3.2,33.4,8.9l18.7-8.9v51.4h-5c0,0-1.4-28.2-18.8-37.6c-16.3-8.8-30.1-8.8-35.1-1.3v102.9
	c0,0,0,5,3.8,8.8C633.6,147.5,638,147.5,638,147.5z"/>
<path class="st1" d="M512.5,118.9l-10.4,13.3c-5.1-2.5-10-5.9-14.7-10.3c-3.6,3.3-7.5,5.7-11.6,7.2c-4.1,1.6-8.9,2.3-14.6,2.3
	c-11.2,0-19.6-3.1-25.2-9.4c-4.4-4.9-6.6-10.5-6.6-16.8c0-5.8,1.7-10.9,5.1-15.5s8.6-8.6,15.4-12c-3.1-3.6-5.4-7.1-6.9-10.4
	c-1.6-3.3-2.3-6.4-2.3-9.3c0-5.4,2.2-10,6.5-13.8s10.5-5.7,18.6-5.7c7.8,0,13.8,2,18.2,5.9c4.4,4,6.6,8.8,6.6,14.5
	c0,3.6-1.1,7.1-3.2,10.3c-2.2,3.3-6.5,7-13.1,11.1l12.5,16.5c1.5-2.6,2.7-6,3.8-10.2l15.6,3.6c-1.6,5.5-2.9,9.5-4,12.1
	s-2.4,4.7-3.7,6.4c1.9,1.8,4.4,3.8,7.4,5.9C508.8,116.8,511.1,118.2,512.5,118.9z M458.9,88.8c-4,2-6.9,4.4-8.9,7.2
	c-2,2.8-2.9,5.7-2.9,8.6c0,3.7,1.2,6.7,3.6,9.1c2.4,2.3,5.7,3.5,9.8,3.5c2.7,0,5.3-0.5,7.8-1.6s5.2-2.8,8.1-5.3L458.9,88.8z
	 M465.7,70.1l4.7-3.6c3.4-2.7,5.1-5.3,5.1-7.9c0-2.2-0.8-4.1-2.5-5.6c-1.7-1.6-3.9-2.3-6.7-2.3c-2.7,0-4.9,0.7-6.4,2.1
	c-1.6,1.4-2.3,2.9-2.3,4.7c0,2.1,1.3,4.7,3.9,7.7L465.7,70.1z"/>
<path class="st1" d="M195.5,62.6c0,0-1.8,3.8-4.2,4.3s-7.5,1-8.5,0.8c0,0-0.3,2.7-3.3,4.2c-3,1.4-6.9,1.3-6.9,1.3s0.8,3,0,4.7
	c-0.8,1.6-2.7,2.4-2.7,2.4s1.4,2.4,0.7,3.9s-1.9,3.2-3.6,3.5c0,0,5,1.6,7.1-3.2c0,0,11.2,2.4,11.1-3.1c0,0,9.4,1.8,9.7-3
	c0,0,7.5,2.2,8-0.8c0,0,20.2,2,27.7-7C230.6,70.4,208.4,68.3,195.5,62.6z"/>
<g class="st2">
	<path class="st1" d="M311.8,184.8v-17.9h2.4v17.9H311.8z"/>
	<path class="st1" d="M318.1,184.8v-13h2v1.8c1-1.4,2.3-2.1,4.1-2.1c0.8,0,1.5,0.1,2.2,0.4c0.7,0.3,1.1,0.6,1.5,1.1
		c0.3,0.5,0.6,1,0.7,1.6c0.1,0.4,0.1,1.1,0.1,2.1v8h-2.2v-7.9c0-0.9-0.1-1.6-0.3-2c-0.2-0.4-0.5-0.8-0.9-1.1
		c-0.4-0.3-0.9-0.4-1.5-0.4c-0.9,0-1.7,0.3-2.4,0.9s-1,1.7-1,3.4v7.1H318.1z"/>
	<path class="st1" d="M336.8,182.8l0.3,1.9c-0.6,0.1-1.2,0.2-1.7,0.2c-0.8,0-1.4-0.1-1.9-0.4c-0.4-0.3-0.7-0.6-0.9-1
		c-0.2-0.4-0.3-1.3-0.3-2.6v-7.5h-1.6v-1.7h1.6v-3.2l2.2-1.3v4.5h2.2v1.7h-2.2v7.6c0,0.6,0,1,0.1,1.2c0.1,0.2,0.2,0.3,0.4,0.4
		c0.2,0.1,0.4,0.2,0.8,0.2C336.1,182.9,336.4,182.9,336.8,182.8z"/>
	<path class="st1" d="M347.9,180.6l2.3,0.3c-0.4,1.3-1,2.4-2,3.1c-1,0.7-2.2,1.1-3.7,1.1c-1.9,0-3.4-0.6-4.5-1.8s-1.7-2.8-1.7-4.9
		c0-2.2,0.6-3.9,1.7-5.1c1.1-1.2,2.6-1.8,4.4-1.8c1.7,0,3.2,0.6,4.3,1.8c1.1,1.2,1.6,2.8,1.6,5c0,0.1,0,0.3,0,0.6h-9.7
		c0.1,1.4,0.5,2.5,1.2,3.3c0.7,0.8,1.6,1.1,2.7,1.1c0.8,0,1.5-0.2,2.1-0.6C347.1,182.2,347.5,181.5,347.9,180.6z M340.7,177h7.2
		c-0.1-1.1-0.4-1.9-0.8-2.5c-0.7-0.8-1.6-1.3-2.7-1.3c-1,0-1.9,0.3-2.5,1C341.1,175,340.7,175.9,340.7,177z"/>
	<path class="st1" d="M352.9,184.8v-13h2v2c0.5-0.9,1-1.5,1.4-1.8c0.4-0.3,0.9-0.4,1.4-0.4c0.7,0,1.5,0.2,2.3,0.7l-0.8,2
		c-0.5-0.3-1.1-0.5-1.6-0.5c-0.5,0-0.9,0.1-1.3,0.4c-0.4,0.3-0.7,0.7-0.8,1.2c-0.2,0.8-0.4,1.6-0.4,2.6v6.8H352.9z"/>
	<path class="st1" d="M361.3,184.8v-13h2v1.8c1-1.4,2.3-2.1,4.1-2.1c0.8,0,1.5,0.1,2.2,0.4c0.7,0.3,1.1,0.6,1.5,1.1
		c0.3,0.5,0.6,1,0.7,1.6c0.1,0.4,0.1,1.1,0.1,2.1v8h-2.2v-7.9c0-0.9-0.1-1.6-0.3-2c-0.2-0.4-0.5-0.8-0.9-1.1
		c-0.4-0.3-0.9-0.4-1.5-0.4c-0.9,0-1.7,0.3-2.4,0.9c-0.7,0.6-1,1.7-1,3.4v7.1H361.3z"/>
	<path class="st1" d="M383.6,183.2c-0.8,0.7-1.6,1.2-2.4,1.5c-0.8,0.3-1.6,0.4-2.4,0.4c-1.4,0-2.5-0.3-3.3-1
		c-0.8-0.7-1.1-1.6-1.1-2.7c0-0.6,0.1-1.2,0.4-1.7c0.3-0.5,0.7-0.9,1.1-1.3c0.5-0.3,1-0.6,1.6-0.7c0.4-0.1,1.1-0.2,2-0.3
		c1.8-0.2,3.1-0.5,3.9-0.8c0-0.3,0-0.5,0-0.6c0-0.9-0.2-1.5-0.6-1.9c-0.6-0.5-1.4-0.7-2.5-0.7c-1,0-1.8,0.2-2.3,0.5
		c-0.5,0.4-0.9,1-1.1,1.9l-2.2-0.3c0.2-0.9,0.5-1.7,1-2.2c0.4-0.6,1.1-1,1.9-1.3c0.8-0.3,1.8-0.5,2.9-0.5c1.1,0,2,0.1,2.7,0.4
		c0.7,0.3,1.2,0.6,1.5,1c0.3,0.4,0.6,0.9,0.7,1.5c0.1,0.4,0.1,1.1,0.1,2v2.9c0,2,0,3.3,0.1,3.9c0.1,0.5,0.3,1.1,0.6,1.6h-2.3
		C383.9,184.3,383.7,183.8,383.6,183.2z M383.5,178.3c-0.8,0.3-2,0.6-3.6,0.8c-0.9,0.1-1.5,0.3-1.9,0.4c-0.4,0.2-0.7,0.4-0.9,0.7
		c-0.2,0.3-0.3,0.7-0.3,1c0,0.6,0.2,1.1,0.7,1.5c0.4,0.4,1.1,0.6,1.9,0.6c0.8,0,1.6-0.2,2.3-0.6c0.7-0.4,1.1-0.9,1.5-1.5
		c0.2-0.5,0.4-1.2,0.4-2.2V178.3z"/>
	<path class="st1" d="M393.9,182.8l0.3,1.9c-0.6,0.1-1.2,0.2-1.7,0.2c-0.8,0-1.4-0.1-1.9-0.4c-0.4-0.3-0.8-0.6-0.9-1
		c-0.2-0.4-0.3-1.3-0.3-2.6v-7.5h-1.6v-1.7h1.6v-3.2l2.2-1.3v4.5h2.2v1.7h-2.2v7.6c0,0.6,0,1,0.1,1.2c0.1,0.2,0.2,0.3,0.4,0.4
		c0.2,0.1,0.4,0.2,0.8,0.2C393.2,182.9,393.5,182.9,393.9,182.8z"/>
	<path class="st1" d="M396.1,169.4v-2.5h2.2v2.5H396.1z M396.1,184.8v-13h2.2v13H396.1z"/>
	<path class="st1" d="M400.8,178.3c0-2.4,0.7-4.2,2-5.3c1.1-1,2.5-1.4,4.1-1.4c1.8,0,3.2,0.6,4.4,1.8c1.1,1.2,1.7,2.8,1.7,4.8
		c0,1.7-0.3,3-0.8,3.9c-0.5,1-1.2,1.7-2.2,2.2c-1,0.5-2,0.8-3.1,0.8c-1.8,0-3.3-0.6-4.4-1.7C401.4,182.2,400.8,180.5,400.8,178.3z
		 M403.1,178.3c0,1.7,0.4,2.9,1.1,3.7c0.7,0.8,1.6,1.2,2.7,1.2c1.1,0,2-0.4,2.7-1.2c0.7-0.8,1.1-2.1,1.1-3.8c0-1.6-0.4-2.8-1.1-3.6
		s-1.6-1.2-2.7-1.2c-1.1,0-2,0.4-2.7,1.2C403.4,175.4,403.1,176.6,403.1,178.3z"/>
	<path class="st1" d="M415.5,184.8v-13h2v1.8c1-1.4,2.3-2.1,4.1-2.1c0.8,0,1.5,0.1,2.2,0.4c0.7,0.3,1.1,0.6,1.5,1.1
		c0.3,0.5,0.6,1,0.7,1.6c0.1,0.4,0.1,1.1,0.1,2.1v8h-2.2v-7.9c0-0.9-0.1-1.6-0.3-2c-0.2-0.4-0.5-0.8-0.9-1.1
		c-0.4-0.3-0.9-0.4-1.5-0.4c-0.9,0-1.7,0.3-2.4,0.9c-0.7,0.6-1,1.7-1,3.4v7.1H415.5z"/>
	<path class="st1" d="M437.9,183.2c-0.8,0.7-1.6,1.2-2.4,1.5c-0.8,0.3-1.6,0.4-2.4,0.4c-1.4,0-2.5-0.3-3.3-1
		c-0.8-0.7-1.1-1.6-1.1-2.7c0-0.6,0.1-1.2,0.4-1.7c0.3-0.5,0.7-0.9,1.1-1.3c0.5-0.3,1-0.6,1.6-0.7c0.4-0.1,1.1-0.2,2-0.3
		c1.8-0.2,3.1-0.5,3.9-0.8c0-0.3,0-0.5,0-0.6c0-0.9-0.2-1.5-0.6-1.9c-0.6-0.5-1.4-0.7-2.5-0.7c-1,0-1.8,0.2-2.3,0.5
		c-0.5,0.4-0.9,1-1.1,1.9l-2.2-0.3c0.2-0.9,0.5-1.7,1-2.2c0.4-0.6,1.1-1,1.9-1.3c0.8-0.3,1.8-0.5,2.9-0.5c1.1,0,2,0.1,2.7,0.4
		c0.7,0.3,1.2,0.6,1.5,1c0.3,0.4,0.6,0.9,0.7,1.5c0.1,0.4,0.1,1.1,0.1,2v2.9c0,2,0,3.3,0.1,3.9c0.1,0.5,0.3,1.1,0.6,1.6h-2.3
		C438.1,184.3,438,183.8,437.9,183.2z M437.7,178.3c-0.8,0.3-2,0.6-3.6,0.8c-0.9,0.1-1.5,0.3-1.9,0.4c-0.4,0.2-0.7,0.4-0.9,0.7
		c-0.2,0.3-0.3,0.7-0.3,1c0,0.6,0.2,1.1,0.7,1.5c0.4,0.4,1.1,0.6,1.9,0.6c0.8,0,1.6-0.2,2.3-0.6c0.7-0.4,1.1-0.9,1.5-1.5
		c0.2-0.5,0.4-1.2,0.4-2.2V178.3z"/>
	<path class="st1" d="M443.3,184.8v-17.9h2.2v17.9H443.3z"/>
	<path class="st1" d="M456.3,184.8v-17.9h2.4v7.4h9.3v-7.4h2.4v17.9h-2.4v-8.4h-9.3v8.4H456.3z"/>
	<path class="st1" d="M482.5,184.8v-1.9c-1,1.5-2.4,2.2-4.1,2.2c-0.8,0-1.5-0.1-2.1-0.4c-0.7-0.3-1.2-0.7-1.5-1.1s-0.5-1-0.7-1.6
		c-0.1-0.4-0.1-1.1-0.1-2.1v-8h2.2v7.2c0,1.1,0,1.9,0.1,2.3c0.1,0.6,0.4,1,0.9,1.4c0.4,0.3,1,0.5,1.7,0.5c0.7,0,1.3-0.2,1.9-0.5
		c0.6-0.3,1-0.8,1.2-1.4c0.2-0.6,0.4-1.4,0.4-2.5v-7h2.2v13H482.5z"/>
	<path class="st1" d="M487.9,184.8v-13h2v1.8c0.4-0.6,0.9-1.1,1.6-1.5c0.7-0.4,1.4-0.6,2.3-0.6c1,0,1.8,0.2,2.4,0.6
		c0.6,0.4,1.1,1,1.3,1.7c1-1.5,2.4-2.3,4-2.3c1.3,0,2.3,0.4,3,1.1c0.7,0.7,1,1.8,1,3.3v8.9h-2.2v-8.2c0-0.9-0.1-1.5-0.2-1.9
		c-0.1-0.4-0.4-0.7-0.8-0.9c-0.4-0.2-0.8-0.4-1.3-0.4c-0.9,0-1.7,0.3-2.3,0.9c-0.6,0.6-0.9,1.6-0.9,2.9v7.5h-2.2v-8.4
		c0-1-0.2-1.7-0.5-2.2c-0.4-0.5-0.9-0.7-1.8-0.7c-0.6,0-1.2,0.2-1.7,0.5c-0.5,0.3-0.9,0.8-1.1,1.4c-0.2,0.6-0.4,1.5-0.4,2.7v6.7
		H487.9z"/>
	<path class="st1" d="M517.2,183.2c-0.8,0.7-1.6,1.2-2.4,1.5c-0.8,0.3-1.6,0.4-2.4,0.4c-1.4,0-2.5-0.3-3.3-1
		c-0.8-0.7-1.1-1.6-1.1-2.7c0-0.6,0.1-1.2,0.4-1.7c0.3-0.5,0.7-0.9,1.1-1.3c0.5-0.3,1-0.6,1.6-0.7c0.4-0.1,1.1-0.2,2-0.3
		c1.8-0.2,3.1-0.5,3.9-0.8c0-0.3,0-0.5,0-0.6c0-0.9-0.2-1.5-0.6-1.9c-0.6-0.5-1.4-0.7-2.5-0.7c-1,0-1.8,0.2-2.3,0.5
		c-0.5,0.4-0.9,1-1.1,1.9l-2.2-0.3c0.2-0.9,0.5-1.7,1-2.2c0.4-0.6,1.1-1,1.9-1.3c0.8-0.3,1.8-0.5,2.9-0.5c1.1,0,2,0.1,2.7,0.4
		c0.7,0.3,1.2,0.6,1.5,1c0.3,0.4,0.6,0.9,0.7,1.5c0.1,0.4,0.1,1.1,0.1,2v2.9c0,2,0,3.3,0.1,3.9c0.1,0.5,0.3,1.1,0.6,1.6h-2.3
		C517.4,184.3,517.3,183.8,517.2,183.2z M517,178.3c-0.8,0.3-2,0.6-3.6,0.8c-0.9,0.1-1.5,0.3-1.9,0.4c-0.4,0.2-0.7,0.4-0.9,0.7
		c-0.2,0.3-0.3,0.7-0.3,1c0,0.6,0.2,1.1,0.7,1.5c0.4,0.4,1.1,0.6,1.9,0.6c0.8,0,1.6-0.2,2.3-0.6c0.7-0.4,1.1-0.9,1.5-1.5
		c0.2-0.5,0.4-1.2,0.4-2.2V178.3z"/>
	<path class="st1" d="M522.7,184.8v-13h2v1.8c1-1.4,2.3-2.1,4.1-2.1c0.8,0,1.5,0.1,2.2,0.4c0.7,0.3,1.1,0.6,1.5,1.1
		c0.3,0.5,0.6,1,0.7,1.6c0.1,0.4,0.1,1.1,0.1,2.1v8H531v-7.9c0-0.9-0.1-1.6-0.3-2c-0.2-0.4-0.5-0.8-0.9-1.1
		c-0.4-0.3-0.9-0.4-1.5-0.4c-0.9,0-1.7,0.3-2.4,0.9c-0.7,0.6-1,1.7-1,3.4v7.1H522.7z"/>
	<path class="st1" d="M543.9,184.8v-17.9h7.9c1.6,0,2.8,0.2,3.6,0.5c0.8,0.3,1.5,0.9,2,1.7c0.5,0.8,0.7,1.7,0.7,2.7
		c0,1.3-0.4,2.3-1.2,3.2c-0.8,0.9-2.1,1.4-3.8,1.7c0.6,0.3,1.1,0.6,1.4,0.9c0.7,0.6,1.3,1.4,2,2.4l3.1,4.9h-3l-2.4-3.7
		c-0.7-1.1-1.3-1.9-1.7-2.5c-0.4-0.6-0.8-1-1.2-1.2c-0.4-0.2-0.7-0.4-1.1-0.5c-0.3-0.1-0.7-0.1-1.3-0.1h-2.7v8H543.9z M546.2,174.8
		h5.1c1.1,0,1.9-0.1,2.5-0.3c0.6-0.2,1.1-0.6,1.4-1.1c0.3-0.5,0.5-1,0.5-1.6c0-0.8-0.3-1.5-0.9-2.1c-0.6-0.5-1.6-0.8-2.9-0.8h-5.7
		V174.8z"/>
	<path class="st1" d="M570.5,180.6l2.3,0.3c-0.4,1.3-1,2.4-2,3.1c-1,0.7-2.2,1.1-3.7,1.1c-1.9,0-3.4-0.6-4.5-1.8
		c-1.1-1.2-1.7-2.8-1.7-4.9c0-2.2,0.6-3.9,1.7-5.1c1.1-1.2,2.6-1.8,4.4-1.8c1.7,0,3.2,0.6,4.3,1.8c1.1,1.2,1.6,2.8,1.6,5
		c0,0.1,0,0.3,0,0.6h-9.7c0.1,1.4,0.5,2.5,1.2,3.3c0.7,0.8,1.6,1.1,2.7,1.1c0.8,0,1.5-0.2,2.1-0.6S570.2,181.5,570.5,180.6z
		 M563.3,177h7.2c-0.1-1.1-0.4-1.9-0.8-2.5c-0.7-0.8-1.6-1.3-2.7-1.3c-1,0-1.9,0.3-2.5,1C563.7,175,563.4,175.9,563.3,177z"/>
	<path class="st1" d="M574.7,180.9l2.2-0.3c0.1,0.9,0.5,1.5,1,2c0.6,0.5,1.3,0.7,2.3,0.7c1,0,1.8-0.2,2.2-0.6
		c0.5-0.4,0.7-0.9,0.7-1.4c0-0.5-0.2-0.9-0.6-1.2c-0.3-0.2-1.1-0.4-2.2-0.7c-1.6-0.4-2.7-0.8-3.4-1.1c-0.6-0.3-1.1-0.7-1.4-1.2
		c-0.3-0.5-0.5-1.1-0.5-1.7c0-0.6,0.1-1.1,0.4-1.6c0.3-0.5,0.6-0.9,1.1-1.2c0.3-0.3,0.8-0.5,1.4-0.6c0.6-0.2,1.2-0.3,1.9-0.3
		c1,0,1.9,0.1,2.7,0.4c0.8,0.3,1.3,0.7,1.7,1.2c0.4,0.5,0.6,1.2,0.8,2l-2.2,0.3c-0.1-0.7-0.4-1.2-0.8-1.6c-0.5-0.4-1.1-0.6-2-0.6
		c-1,0-1.7,0.2-2.2,0.5c-0.4,0.3-0.6,0.7-0.6,1.2c0,0.3,0.1,0.5,0.3,0.8c0.2,0.2,0.5,0.4,0.8,0.6c0.2,0.1,0.9,0.3,1.9,0.6
		c1.6,0.4,2.6,0.8,3.3,1c0.6,0.3,1.1,0.6,1.4,1.2c0.3,0.5,0.5,1.1,0.5,1.9c0,0.7-0.2,1.4-0.6,2.1c-0.4,0.6-1,1.1-1.9,1.5
		c-0.8,0.4-1.7,0.5-2.7,0.5c-1.7,0-3-0.4-3.9-1.1C575.5,183.3,574.9,182.3,574.7,180.9z"/>
	<path class="st1" d="M587.3,178.3c0-2.4,0.7-4.2,2-5.3c1.1-1,2.5-1.4,4.1-1.4c1.8,0,3.2,0.6,4.4,1.8c1.1,1.2,1.7,2.8,1.7,4.8
		c0,1.7-0.3,3-0.8,3.9c-0.5,1-1.2,1.7-2.2,2.2c-1,0.5-2,0.8-3.1,0.8c-1.8,0-3.3-0.6-4.4-1.7C587.8,182.2,587.3,180.5,587.3,178.3z
		 M589.5,178.3c0,1.7,0.4,2.9,1.1,3.7c0.7,0.8,1.6,1.2,2.7,1.2c1.1,0,2-0.4,2.7-1.2c0.7-0.8,1.1-2.1,1.1-3.8c0-1.6-0.4-2.8-1.1-3.6
		s-1.6-1.2-2.7-1.2c-1.1,0-2,0.4-2.7,1.2C589.9,175.4,589.5,176.6,589.5,178.3z"/>
	<path class="st1" d="M610.5,184.8v-1.9c-1,1.5-2.4,2.2-4.1,2.2c-0.8,0-1.5-0.1-2.1-0.4c-0.7-0.3-1.2-0.7-1.5-1.1s-0.5-1-0.7-1.6
		c-0.1-0.4-0.1-1.1-0.1-2.1v-8h2.2v7.2c0,1.1,0,1.9,0.1,2.3c0.1,0.6,0.4,1,0.9,1.4c0.4,0.3,1,0.5,1.7,0.5c0.7,0,1.3-0.2,1.9-0.5
		c0.6-0.3,1-0.8,1.2-1.4c0.2-0.6,0.4-1.4,0.4-2.5v-7h2.2v13H610.5z"/>
	<path class="st1" d="M615.9,184.8v-13h2v2c0.5-0.9,1-1.5,1.4-1.8c0.4-0.3,0.9-0.4,1.4-0.4c0.7,0,1.5,0.2,2.3,0.7l-0.8,2
		c-0.5-0.3-1.1-0.5-1.6-0.5c-0.5,0-0.9,0.1-1.3,0.4c-0.4,0.3-0.7,0.7-0.8,1.2c-0.2,0.8-0.4,1.6-0.4,2.6v6.8H615.9z"/>
	<path class="st1" d="M632.7,180l2.2,0.3c-0.2,1.5-0.8,2.7-1.8,3.5c-1,0.8-2.2,1.3-3.6,1.3c-1.8,0-3.2-0.6-4.3-1.7
		c-1.1-1.2-1.6-2.8-1.6-5c0-1.4,0.2-2.6,0.7-3.7c0.5-1.1,1.2-1.8,2.1-2.4c0.9-0.5,2-0.8,3.1-0.8c1.4,0,2.6,0.4,3.5,1.1
		c0.9,0.7,1.5,1.7,1.7,3l-2.1,0.3c-0.2-0.9-0.6-1.5-1.1-2c-0.5-0.4-1.1-0.7-1.9-0.7c-1.1,0-2,0.4-2.7,1.2c-0.7,0.8-1,2.1-1,3.8
		c0,1.7,0.3,3,1,3.8c0.7,0.8,1.5,1.2,2.6,1.2c0.9,0,1.6-0.3,2.2-0.8C632.2,181.9,632.6,181.1,632.7,180z"/>
	<path class="st1" d="M645.7,180.6l2.3,0.3c-0.4,1.3-1,2.4-2,3.1c-1,0.7-2.2,1.1-3.7,1.1c-1.9,0-3.4-0.6-4.5-1.8
		c-1.1-1.2-1.7-2.8-1.7-4.9c0-2.2,0.6-3.9,1.7-5.1c1.1-1.2,2.6-1.8,4.4-1.8c1.7,0,3.2,0.6,4.3,1.8c1.1,1.2,1.6,2.8,1.6,5
		c0,0.1,0,0.3,0,0.6h-9.7c0.1,1.4,0.5,2.5,1.2,3.3c0.7,0.8,1.6,1.1,2.7,1.1c0.8,0,1.5-0.2,2.1-0.6
		C644.9,182.2,645.3,181.5,645.7,180.6z M638.4,177h7.2c-0.1-1.1-0.4-1.9-0.8-2.5c-0.7-0.8-1.6-1.3-2.7-1.3c-1,0-1.9,0.3-2.5,1
		C638.9,175,638.5,175.9,638.4,177z"/>
	<path class="st1" d="M360.1,214.8v-17.9h3.6l4.2,12.7c0.4,1.2,0.7,2.1,0.9,2.7c0.2-0.7,0.5-1.6,1-2.9l4.3-12.5h3.2v17.9h-2.3v-15
		l-5.2,15h-2.1l-5.2-15.3v15.3H360.1z"/>
	<path class="st1" d="M389.2,213.2c-0.8,0.7-1.6,1.2-2.4,1.5c-0.8,0.3-1.6,0.4-2.4,0.4c-1.4,0-2.5-0.3-3.3-1
		c-0.8-0.7-1.1-1.6-1.1-2.7c0-0.6,0.1-1.2,0.4-1.7c0.3-0.5,0.7-0.9,1.1-1.3c0.5-0.3,1-0.6,1.6-0.7c0.4-0.1,1.1-0.2,2-0.3
		c1.8-0.2,3.1-0.5,3.9-0.8c0-0.3,0-0.5,0-0.6c0-0.9-0.2-1.5-0.6-1.9c-0.6-0.5-1.4-0.7-2.5-0.7c-1,0-1.8,0.2-2.3,0.5
		c-0.5,0.4-0.9,1-1.1,1.9l-2.2-0.3c0.2-0.9,0.5-1.7,1-2.2c0.4-0.6,1.1-1,1.9-1.3c0.8-0.3,1.8-0.5,2.9-0.5c1.1,0,2,0.1,2.7,0.4
		c0.7,0.3,1.2,0.6,1.5,1c0.3,0.4,0.6,0.9,0.7,1.5c0.1,0.4,0.1,1.1,0.1,2v2.9c0,2,0,3.3,0.1,3.9c0.1,0.5,0.3,1.1,0.6,1.6h-2.3
		C389.4,214.4,389.3,213.8,389.2,213.2z M389,208.3c-0.8,0.3-2,0.6-3.6,0.8c-0.9,0.1-1.5,0.3-1.9,0.4c-0.4,0.2-0.7,0.4-0.9,0.7
		c-0.2,0.3-0.3,0.7-0.3,1c0,0.6,0.2,1.1,0.7,1.5c0.4,0.4,1.1,0.6,1.9,0.6c0.8,0,1.6-0.2,2.3-0.6c0.7-0.4,1.1-0.9,1.5-1.5
		c0.2-0.5,0.4-1.2,0.4-2.2V208.3z"/>
	<path class="st1" d="M394.6,214.8v-13h2v1.8c1-1.4,2.3-2.1,4.1-2.1c0.8,0,1.5,0.1,2.2,0.4c0.7,0.3,1.1,0.6,1.5,1.1
		c0.3,0.5,0.6,1,0.7,1.6c0.1,0.4,0.1,1.1,0.1,2.1v8H403v-7.9c0-0.9-0.1-1.6-0.3-2c-0.2-0.4-0.5-0.8-0.9-1.1
		c-0.4-0.3-0.9-0.4-1.5-0.4c-0.9,0-1.7,0.3-2.4,0.9c-0.7,0.6-1,1.7-1,3.4v7.1H394.6z"/>
	<path class="st1" d="M417,213.2c-0.8,0.7-1.6,1.2-2.4,1.5c-0.8,0.3-1.6,0.4-2.4,0.4c-1.4,0-2.5-0.3-3.3-1c-0.8-0.7-1.1-1.6-1.1-2.7
		c0-0.6,0.1-1.2,0.4-1.7c0.3-0.5,0.7-0.9,1.1-1.3c0.5-0.3,1-0.6,1.6-0.7c0.4-0.1,1.1-0.2,2-0.3c1.8-0.2,3.1-0.5,3.9-0.8
		c0-0.3,0-0.5,0-0.6c0-0.9-0.2-1.5-0.6-1.9c-0.6-0.5-1.4-0.7-2.5-0.7c-1,0-1.8,0.2-2.3,0.5c-0.5,0.4-0.9,1-1.1,1.9l-2.2-0.3
		c0.2-0.9,0.5-1.7,1-2.2c0.4-0.6,1.1-1,1.9-1.3c0.8-0.3,1.8-0.5,2.9-0.5c1.1,0,2,0.1,2.7,0.4c0.7,0.3,1.2,0.6,1.5,1
		c0.3,0.4,0.6,0.9,0.7,1.5c0.1,0.4,0.1,1.1,0.1,2v2.9c0,2,0,3.3,0.1,3.9c0.1,0.5,0.3,1.1,0.6,1.6h-2.3
		C417.3,214.4,417.1,213.8,417,213.2z M416.9,208.3c-0.8,0.3-2,0.6-3.6,0.8c-0.9,0.1-1.5,0.3-1.9,0.4c-0.4,0.2-0.7,0.4-0.9,0.7
		c-0.2,0.3-0.3,0.7-0.3,1c0,0.6,0.2,1.1,0.7,1.5c0.4,0.4,1.1,0.6,1.9,0.6c0.8,0,1.6-0.2,2.3-0.6c0.7-0.4,1.1-0.9,1.5-1.5
		c0.2-0.5,0.4-1.2,0.4-2.2V208.3z"/>
	<path class="st1" d="M422.1,215.9l2.1,0.3c0.1,0.7,0.3,1.1,0.7,1.4c0.5,0.4,1.3,0.6,2.2,0.6c1,0,1.8-0.2,2.4-0.6
		c0.6-0.4,0.9-1,1.1-1.7c0.1-0.4,0.2-1.4,0.2-2.8c-1,1.1-2.2,1.7-3.6,1.7c-1.8,0-3.2-0.6-4.1-1.9c-1-1.3-1.5-2.8-1.5-4.6
		c0-1.2,0.2-2.4,0.7-3.4c0.4-1,1.1-1.9,1.9-2.4c0.9-0.6,1.9-0.9,3-0.9c1.5,0,2.8,0.6,3.8,1.9v-1.6h2v11.2c0,2-0.2,3.5-0.6,4.3
		c-0.4,0.8-1.1,1.5-2,2c-0.9,0.5-2,0.7-3.3,0.7c-1.5,0-2.8-0.3-3.8-1C422.5,218.3,422.1,217.3,422.1,215.9z M423.9,208.1
		c0,1.7,0.3,2.9,1,3.7c0.7,0.8,1.5,1.2,2.5,1.2c1,0,1.9-0.4,2.5-1.2c0.7-0.8,1-2,1-3.7c0-1.6-0.4-2.8-1.1-3.6
		c-0.7-0.8-1.6-1.2-2.5-1.2c-1,0-1.8,0.4-2.5,1.2C424.3,205.4,423.9,206.5,423.9,208.1z"/>
	<path class="st1" d="M445.3,210.6l2.3,0.3c-0.4,1.3-1,2.4-2,3.1c-1,0.7-2.2,1.1-3.7,1.1c-1.9,0-3.4-0.6-4.5-1.8
		c-1.1-1.2-1.7-2.8-1.7-4.9c0-2.2,0.6-3.9,1.7-5.1c1.1-1.2,2.6-1.8,4.4-1.8c1.7,0,3.2,0.6,4.3,1.8c1.1,1.2,1.6,2.8,1.6,5
		c0,0.1,0,0.3,0,0.6H438c0.1,1.4,0.5,2.5,1.2,3.3c0.7,0.8,1.6,1.1,2.7,1.1c0.8,0,1.5-0.2,2.1-0.6C444.5,212.2,445,211.6,445.3,210.6
		z M438.1,207.1h7.2c-0.1-1.1-0.4-1.9-0.8-2.5c-0.7-0.8-1.6-1.3-2.7-1.3c-1,0-1.9,0.3-2.5,1C438.5,205,438.2,206,438.1,207.1z"/>
	<path class="st1" d="M450.3,214.8v-13h2v1.8c0.4-0.6,0.9-1.1,1.6-1.5c0.7-0.4,1.4-0.6,2.3-0.6c1,0,1.8,0.2,2.4,0.6
		c0.6,0.4,1,1,1.3,1.7c1-1.5,2.4-2.3,4-2.3c1.3,0,2.3,0.4,3,1.1c0.7,0.7,1,1.8,1,3.3v8.9h-2.2v-8.2c0-0.9-0.1-1.5-0.2-1.9
		c-0.1-0.4-0.4-0.7-0.8-0.9c-0.4-0.2-0.8-0.4-1.3-0.4c-0.9,0-1.7,0.3-2.3,0.9c-0.6,0.6-0.9,1.6-0.9,2.9v7.5h-2.2v-8.4
		c0-1-0.2-1.7-0.5-2.2c-0.4-0.5-0.9-0.7-1.8-0.7c-0.6,0-1.2,0.2-1.7,0.5c-0.5,0.3-0.9,0.8-1.1,1.4c-0.2,0.6-0.4,1.5-0.4,2.7v6.7
		H450.3z"/>
	<path class="st1" d="M480.1,210.6l2.3,0.3c-0.4,1.3-1,2.4-2,3.1c-1,0.7-2.2,1.1-3.7,1.1c-1.9,0-3.4-0.6-4.5-1.8
		c-1.1-1.2-1.7-2.8-1.7-4.9c0-2.2,0.6-3.9,1.7-5.1c1.1-1.2,2.6-1.8,4.4-1.8c1.7,0,3.2,0.6,4.3,1.8c1.1,1.2,1.6,2.8,1.6,5
		c0,0.1,0,0.3,0,0.6h-9.7c0.1,1.4,0.5,2.5,1.2,3.3c0.7,0.8,1.6,1.1,2.7,1.1c0.8,0,1.5-0.2,2.1-0.6S479.7,211.6,480.1,210.6z
		 M472.9,207.1h7.2c-0.1-1.1-0.4-1.9-0.8-2.5c-0.7-0.8-1.6-1.3-2.7-1.3c-1,0-1.9,0.3-2.5,1C473.3,205,472.9,206,472.9,207.1z"/>
	<path class="st1" d="M485.1,214.8v-13h2v1.8c1-1.4,2.3-2.1,4.1-2.1c0.8,0,1.5,0.1,2.2,0.4c0.7,0.3,1.1,0.6,1.5,1.1
		c0.3,0.5,0.6,1,0.7,1.6c0.1,0.4,0.1,1.1,0.1,2.1v8h-2.2v-7.9c0-0.9-0.1-1.6-0.3-2c-0.2-0.4-0.5-0.8-0.9-1.1
		c-0.4-0.3-0.9-0.4-1.5-0.4c-0.9,0-1.7,0.3-2.4,0.9c-0.7,0.6-1,1.7-1,3.4v7.1H485.1z"/>
	<path class="st1" d="M503.8,212.9l0.3,1.9c-0.6,0.1-1.2,0.2-1.7,0.2c-0.8,0-1.4-0.1-1.9-0.4c-0.4-0.3-0.8-0.6-0.9-1
		c-0.2-0.4-0.3-1.3-0.3-2.6v-7.5h-1.6v-1.7h1.6v-3.2l2.2-1.3v4.5h2.2v1.7h-2.2v7.6c0,0.6,0,1,0.1,1.2c0.1,0.2,0.2,0.3,0.4,0.4
		c0.2,0.1,0.4,0.2,0.8,0.2C503.1,212.9,503.4,212.9,503.8,212.9z"/>
	<path class="st1" d="M512.4,209.1l2.2-0.2c0.1,0.9,0.4,1.6,0.7,2.2c0.4,0.6,1,1,1.8,1.4c0.8,0.4,1.7,0.5,2.7,0.5
		c0.9,0,1.7-0.1,2.4-0.4c0.7-0.3,1.2-0.6,1.5-1.1c0.3-0.5,0.5-1,0.5-1.5c0-0.6-0.2-1.1-0.5-1.5c-0.3-0.4-0.9-0.8-1.6-1.1
		c-0.5-0.2-1.5-0.5-3.2-0.9c-1.6-0.4-2.8-0.8-3.5-1.1c-0.9-0.4-1.5-1-1.9-1.7c-0.4-0.7-0.6-1.4-0.6-2.2c0-0.9,0.3-1.8,0.8-2.5
		c0.5-0.8,1.3-1.4,2.2-1.8c1-0.4,2.1-0.6,3.3-0.6c1.3,0,2.5,0.2,3.5,0.6c1,0.4,1.8,1.1,2.3,1.9c0.5,0.8,0.8,1.8,0.9,2.8l-2.3,0.2
		c-0.1-1.1-0.5-2-1.2-2.6c-0.7-0.6-1.7-0.9-3.1-0.9c-1.4,0-2.5,0.3-3.1,0.8c-0.7,0.5-1,1.2-1,1.9c0,0.6,0.2,1.2,0.7,1.6
		c0.5,0.4,1.6,0.8,3.6,1.3c1.9,0.4,3.2,0.8,4,1.1c1,0.5,1.8,1.1,2.3,1.8c0.5,0.7,0.7,1.6,0.7,2.5c0,1-0.3,1.9-0.8,2.7
		c-0.5,0.8-1.3,1.5-2.4,2c-1,0.5-2.2,0.7-3.5,0.7c-1.6,0-3-0.2-4.1-0.7c-1.1-0.5-2-1.2-2.6-2.1C512.8,211.3,512.5,210.3,512.4,209.1
		z"/>
	<path class="st1" d="M538.5,210.6l2.3,0.3c-0.4,1.3-1,2.4-2,3.1c-1,0.7-2.2,1.1-3.7,1.1c-1.9,0-3.4-0.6-4.5-1.8
		c-1.1-1.2-1.7-2.8-1.7-4.9c0-2.2,0.6-3.9,1.7-5.1c1.1-1.2,2.6-1.8,4.4-1.8c1.7,0,3.2,0.6,4.3,1.8c1.1,1.2,1.6,2.8,1.6,5
		c0,0.1,0,0.3,0,0.6h-9.7c0.1,1.4,0.5,2.5,1.2,3.3c0.7,0.8,1.6,1.1,2.7,1.1c0.8,0,1.5-0.2,2.1-0.6
		C537.7,212.2,538.2,211.6,538.5,210.6z M531.3,207.1h7.2c-0.1-1.1-0.4-1.9-0.8-2.5c-0.7-0.8-1.6-1.3-2.7-1.3c-1,0-1.9,0.3-2.5,1
		C531.8,205,531.4,206,531.3,207.1z"/>
	<path class="st1" d="M543.5,214.8v-13h2v2c0.5-0.9,1-1.5,1.4-1.8c0.4-0.3,0.9-0.4,1.4-0.4c0.7,0,1.5,0.2,2.3,0.7l-0.8,2
		c-0.5-0.3-1.1-0.5-1.6-0.5c-0.5,0-0.9,0.1-1.3,0.4c-0.4,0.3-0.7,0.7-0.8,1.2c-0.2,0.8-0.4,1.6-0.4,2.6v6.8H543.5z"/>
	<path class="st1" d="M555.5,214.8l-4.9-13h2.3l2.8,7.8c0.3,0.8,0.6,1.7,0.8,2.6c0.2-0.7,0.5-1.5,0.8-2.5l2.9-7.9h2.3l-4.9,13H555.5
		z"/>
	<path class="st1" d="M564.4,199.4v-2.5h2.2v2.5H564.4z M564.4,214.8v-13h2.2v13H564.4z"/>
	<path class="st1" d="M578.5,210.1l2.2,0.3c-0.2,1.5-0.8,2.7-1.8,3.5c-1,0.8-2.2,1.3-3.6,1.3c-1.8,0-3.2-0.6-4.3-1.7
		c-1.1-1.2-1.6-2.8-1.6-5c0-1.4,0.2-2.6,0.7-3.7c0.5-1.1,1.2-1.8,2.1-2.4c0.9-0.5,2-0.8,3.1-0.8c1.4,0,2.6,0.4,3.5,1.1
		c0.9,0.7,1.5,1.7,1.7,3l-2.1,0.3c-0.2-0.9-0.6-1.5-1.1-2c-0.5-0.4-1.1-0.7-1.9-0.7c-1.1,0-2,0.4-2.7,1.2s-1,2.1-1,3.8
		c0,1.7,0.3,3,1,3.8c0.7,0.8,1.5,1.2,2.6,1.2c0.9,0,1.6-0.3,2.2-0.8C577.9,212,578.3,211.2,578.5,210.1z"/>
	<path class="st1" d="M591.4,210.6l2.3,0.3c-0.4,1.3-1,2.4-2,3.1s-2.2,1.1-3.7,1.1c-1.9,0-3.4-0.6-4.5-1.8c-1.1-1.2-1.7-2.8-1.7-4.9
		c0-2.2,0.6-3.9,1.7-5.1c1.1-1.2,2.6-1.8,4.4-1.8c1.7,0,3.2,0.6,4.3,1.8c1.1,1.2,1.6,2.8,1.6,5c0,0.1,0,0.3,0,0.6H584
		c0.1,1.4,0.5,2.5,1.2,3.3c0.7,0.8,1.6,1.1,2.7,1.1c0.8,0,1.5-0.2,2.1-0.6C590.6,212.2,591,211.6,591.4,210.6z M584.2,207.1h7.2
		c-0.1-1.1-0.4-1.9-0.8-2.5c-0.7-0.8-1.6-1.3-2.7-1.3c-1,0-1.9,0.3-2.5,1C584.6,205,584.2,206,584.2,207.1z"/>
	<path class="st1" d="M595.5,210.9l2.2-0.3c0.1,0.9,0.5,1.5,1,2c0.6,0.5,1.3,0.7,2.3,0.7c1,0,1.8-0.2,2.2-0.6
		c0.5-0.4,0.7-0.9,0.7-1.4c0-0.5-0.2-0.9-0.6-1.2c-0.3-0.2-1.1-0.4-2.2-0.7c-1.6-0.4-2.7-0.8-3.4-1.1c-0.6-0.3-1.1-0.7-1.4-1.2
		c-0.3-0.5-0.5-1.1-0.5-1.7c0-0.6,0.1-1.1,0.4-1.6c0.3-0.5,0.6-0.9,1.1-1.2c0.3-0.3,0.8-0.5,1.4-0.6c0.6-0.2,1.2-0.3,1.9-0.3
		c1,0,1.9,0.1,2.7,0.4c0.8,0.3,1.3,0.7,1.7,1.2c0.4,0.5,0.6,1.2,0.8,2l-2.2,0.3c-0.1-0.7-0.4-1.2-0.8-1.6c-0.5-0.4-1.1-0.6-2-0.6
		c-1,0-1.7,0.2-2.2,0.5c-0.4,0.3-0.6,0.7-0.6,1.2c0,0.3,0.1,0.5,0.3,0.8c0.2,0.2,0.5,0.4,0.8,0.6c0.2,0.1,0.9,0.3,1.9,0.6
		c1.6,0.4,2.6,0.8,3.3,1c0.6,0.3,1.1,0.6,1.4,1.2c0.3,0.5,0.5,1.1,0.5,1.9c0,0.7-0.2,1.4-0.6,2.1c-0.4,0.6-1,1.1-1.9,1.5
		c-0.8,0.4-1.7,0.5-2.7,0.5c-1.7,0-3-0.4-3.9-1.1C596.3,213.4,595.8,212.3,595.5,210.9z"/>
</g>
<g>
	
		<linearGradient id="SVGID_1_" gradientUnits="userSpaceOnUse" x1="74.5" y1="169.7256" x2="124.8044" y2="169.7256" gradientTransform="matrix(1 0 0 -1 0 215.2756)">
		<stop  offset="0" style="stop-color:#FEDF01"/>
		<stop  offset="0.6943" style="stop-color:#FFC600"/>
		<stop  offset="1" style="stop-color:#FCCD03"/>
	</linearGradient>
	<path class="st3" d="M74.5,46.9c0,0,3.4-7.6,13.7-7.6s17.4,0.7,23.4,0.8c4.9,0.1,8.2-4.1,10.4-6.2l2.9,10.6c0,0-3.7,5.9-9,6.1
		c-7.1,0.3-15-0.4-20.5-0.7c-5.5-0.2-11.4-1-17.9,7.3L74.5,46.9z"/>
	<path d="M68.8,26.8c0,0,3.1-7.6,13.4-7.6s19.3,2.3,24,1c4.7-1.2,7.9-4.9,10.1-7l2.9,10.6c0,0-4,4.6-8.8,6.8c-4.4,2-15.4,0-20.9-0.3
		c-5.5-0.2-11.2-2-17.6,6.3L68.8,26.8z"/>
	
		<linearGradient id="SVGID_2_" gradientUnits="userSpaceOnUse" x1="71.5" y1="180.2256" x2="122" y2="180.2256" gradientTransform="matrix(1 0 0 -1 0 215.2756)">
		<stop  offset="0" style="stop-color:#F10109"/>
		<stop  offset="0.2691" style="stop-color:#FD0001"/>
		<stop  offset="0.6943" style="stop-color:#D30405"/>
		<stop  offset="1" style="stop-color:#D80301"/>
	</linearGradient>
	<path class="st4" d="M71.5,36.8c0,0,3.2-7.4,13.5-7.4s19.3,2.3,24,1c4.7-1.2,7.9-4.9,10.1-7L122,34c0,0-3.7,5.9-9,6.1
		c-5.3,0.1-15-0.4-20.5-0.7c-5.5-0.2-11.4-1-17.9,7.3L71.5,36.8z"/>
	<polygon class="st5" points="67.9,27 68.3,26.4 68.9,26.2 80.2,65.8 79,66.1 	"/>
</g>
<polygon class="st5" points="49.1,38 49.1,37.3 49.5,36.8 79.2,65.3 79.5,66.3 78.3,66.1 "/>
<polygon class="st6" points="49.1,38 44.2,41.4 42.6,61 44.6,63.7 47.6,64.3 68,60.2 72,60.1 "/>
<path class="st7" d="M72,60.1c0,0-18.7-2.7-27.4,3.7c0,0-2.4,7.3-5.5,10.5c-3.1,3.2-7,7.5-12.7,9.7L38,95.6c0,0,10.3-1.8,14.8-11.7
	S59.9,61.7,72,60.1z"/>
<path class="st8" d="M53.4,46.3C53.5,46.3,53.5,46.3,53.4,46.3c0.1,0,0.1,0.1,0.2,0.1c0.2,0.1,0.3,0.3,0.2,0.5l0,0
	c0,0.3,0,0.6-0.1,1c0,0.4-0.1,0.9-0.1,1.3c0,0.2,0,0.2,0.2,0.2l0,0c0.1-0.8,0.2-1.6,0.3-2.4c0.1,0.1,0.2,0.2,0.3,0.3c0,0,0,0,0,0.1
	s-0.1,0.3-0.1,0.4c0,0.2-0.1,0.4-0.1,0.7c0,0.2-0.1,0.4-0.1,0.6c0,0.1-0.1,0.3-0.1,0.4c0.4,0.1,0.7,0.2,1,0.4c0,0,0-0.1,0.1-0.1
	c0.4-0.6,0.8-1.1,1.1-1.7c0,0,0,0,0.1,0s0.2,0,0.4,0c-0.1,0.1-0.2,0.2-0.3,0.4c-0.4,0.5-0.7,0.9-1.1,1.4c-0.1,0.2-0.1,0.1,0,0.3l0,0
	c0.2-0.2,0.3-0.4,0.5-0.5c0.4-0.5,0.8-1,1.3-1.4c0,0,0,0,0.1-0.1c0.2,0,0.3,0,0.5,0c0,0.1,0,0.2,0,0.3s0,0.2-0.2,0.3
	c-0.4,0.3-0.8,0.7-1.2,1c-0.2,0.2-0.4,0.4-0.7,0.6c0,0-0.1,0.1,0,0.1c0,0.1,0.1,0.1,0.1,0c0.1-0.1,0.2-0.2,0.3-0.2
	c0.5-0.4,1-0.7,1.4-1.1c0,0,0.1-0.1,0.2-0.1c0,0.2,0,0.3,0,0.4c0,0,0,0,0,0.1c-0.1,0.1-0.3,0.2-0.4,0.3c-0.4,0.3-0.9,0.6-1.3,0.9
	c0,0-0.1,0.1,0,0.1c0.1,0.1,0.1,0.2,0.2,0.4c0.1,0.2,0.1,0.4,0.2,0.6c0.2,0,0.3-0.1,0.5-0.1s0.3-0.1,0.5-0.1s0.3-0.1,0.5-0.1
	s0.4-0.1,0.6-0.1h0.1c0.1,0.1,0.2,0.2,0.3,0.3c-0.8,0.1-1.6,0.2-2.4,0.3c0,0.1,0,0.1,0,0.2c0.2,0,0.3,0,0.5,0c0.4,0,0.8-0.1,1.1-0.1
	s0.6,0,0.9,0H59c0.1,0,0.1,0,0.2,0.1c0,0,0,0,0.1,0.1s0.2,0.1,0.2,0.2l0,0l0,0c-0.1,0.1-0.2,0.2-0.3,0.3L59.1,53c-0.2,0-0.4,0-0.6,0
	c-0.2,0-0.4,0-0.6,0c-0.3,0-0.6,0-0.9,0l0,0c-0.2,0-0.3,0-0.5,0c0,0.1,0,0.1,0,0.1s0,0.1,0.1,0.1c0.2,0,0.3,0,0.5,0.1
	c0.2,0,0.5,0.1,0.7,0.1c0.1,0,0.2,0,0.3,0c0.3,0,0.5,0.1,0.8,0.1c0,0,0,0,0.1,0c-0.1,0.1-0.2,0.2-0.2,0.3c0,0,0,0-0.1,0
	s-0.1,0-0.2,0c-0.2,0-0.3-0.1-0.5-0.1c-0.1,0-0.3-0.1-0.4-0.1c-0.2,0-0.3-0.1-0.5-0.1c-0.1,0-0.3,0-0.4-0.1c-0.1,0-0.1,0-0.1,0.1
	c-0.1,0.3-0.2,0.6-0.3,0.9c0,0.1,0,0.1,0,0.2c0.6,0.4,1.1,0.7,1.7,1.1c0,0,0,0,0,0.1s0,0.3,0,0.4c-0.7-0.5-1.3-1-2-1.5
	c0,0.1-0.1,0.1-0.1,0.2c0.3,0.3,0.6,0.5,0.9,0.8c0.4,0.3,0.7,0.6,1.1,1v0.1c0,0.2,0,0.3,0,0.5c-0.2,0-0.3,0-0.5,0c0,0,0,0-0.1,0
	c-0.5-0.5-0.9-1.1-1.4-1.6c-0.1-0.1-0.2-0.3-0.4-0.4c0,0-0.1,0-0.1,0.1v0.1c0.4,0.5,0.7,1,1.1,1.5c0.1,0.1,0.2,0.3,0.3,0.4
	c-0.1,0-0.2,0-0.4,0c0,0-0.1,0-0.1-0.1c-0.2-0.4-0.5-0.7-0.7-1.1c-0.2-0.2-0.3-0.5-0.5-0.7l0,0c-0.3,0.2-0.6,0.3-0.9,0.4
	c-0.2-1-0.2-1-0.2-0.9c0,0.2,0.1,0.4,0.1,0.6c0,0.2,0.1,0.4,0.1,0.6c0,0.2,0.1,0.5,0.1,0.7c0,0.1,0,0.2-0.1,0.2l-0.1,0.1
	c0,0,0,0-0.1,0v-0.1c0-0.3-0.1-0.6-0.1-1c0-0.3-0.1-0.5-0.1-0.8c0-0.2,0-0.3-0.1-0.5c-0.1,0-0.1,0-0.2,0c0,0.2,0,0.4,0,0.6
	c0,0.3,0,0.5,0,0.8c0,0.4,0.1,0.8,0.1,1.2v0.1c-0.1,0.1-0.2,0.2-0.3,0.3l0,0c-0.1-0.1-0.2-0.2-0.3-0.3s-0.1-0.1-0.1-0.2
	c0-0.2,0-0.5,0.1-0.7c0-0.4,0.1-0.8,0.1-1.2c0-0.2,0-0.3,0-0.5c0-0.1,0-0.2,0-0.2c-0.1,0-0.1,0-0.2,0c-0.1,0.8-0.2,1.6-0.3,2.4l0,0
	c0-0.1-0.1-0.1-0.1-0.2c-0.1-0.1-0.1-0.2-0.1-0.3c0-0.2,0.1-0.5,0.1-0.7s0.1-0.4,0.1-0.6c0-0.2,0.1-0.4,0.1-0.6c-0.1,0-0.1,0-0.2,0
	c-0.3-0.1-0.5-0.2-0.8-0.3h-0.1c-0.3,0.5-0.7,1-1,1.5c-0.1,0.1-0.1,0.3-0.3,0.3l0,0c-0.1,0-0.2,0-0.3,0c0.5-0.7,1-1.3,1.5-1.9
	c0,0-0.1,0-0.1-0.1h-0.1c-0.6,0.6-1.1,1.3-1.7,1.9h-0.1c-0.2,0-0.3,0-0.5,0c0-0.2,0-0.3,0-0.4c0,0,0-0.1,0.1-0.1
	c0.1-0.1,0.2-0.2,0.3-0.2c0.5-0.4,1-0.9,1.5-1.3C51,54,51,54,51.1,53.9c0,0,0,0,0-0.1s-0.1-0.1-0.2,0c-0.6,0.4-1.1,0.9-1.7,1.3
	c0,0-0.1,0-0.1,0.1c0-0.1,0-0.2,0-0.3c0,0,0,0,0-0.1c0.4-0.3,0.9-0.6,1.3-0.9c0.2-0.1,0.3-0.2,0.5-0.3c-0.2-0.3-0.4-0.7-0.4-1
	c-0.1,0-0.1,0-0.2,0c-0.2,0-0.3,0.1-0.5,0.1c-0.1,0-0.3,0.1-0.4,0.1c-0.1,0-0.3,0.1-0.4,0.1c-0.2,0-0.3,0-0.5,0.1
	c-0.1,0-0.1,0-0.2-0.1c-0.1-0.1-0.1-0.1-0.2-0.2c0.1,0,0.3,0,0.4-0.1c0.1,0,0.3,0,0.4,0c0.1,0,0.2,0,0.3,0c0.2,0,0.4-0.1,0.7-0.1
	c0.1,0,0.3,0,0.4-0.1c0.1,0,0.1,0,0.2,0c0-0.2,0-0.2-0.2-0.2l0,0c-0.3,0-0.6,0-0.8,0c-0.3,0-0.6,0-0.9,0.1c-0.3,0-0.5,0-0.8,0h-0.1
	c-0.1-0.1-0.1-0.1-0.2-0.2l0,0l0,0l0,0l0,0l0,0l0,0l0,0l0,0V52c0.1-0.1,0.2-0.2,0.3-0.3h0.1c0.1,0,0.2,0,0.3,0c0.2,0,0.3,0,0.5,0
	s0.4,0,0.6,0c0.2,0,0.3,0,0.5,0s0.4,0,0.6,0c0.1,0,0.1-0.1,0.1-0.1c0-0.1,0-0.1-0.1-0.1c-0.2,0-0.4-0.1-0.6-0.1
	c-0.2,0-0.5-0.1-0.7-0.1c-0.1,0-0.2,0-0.3,0c-0.2,0-0.3,0-0.5-0.1c-0.1,0-0.1,0-0.2,0c0.1-0.1,0.1-0.2,0.2-0.2h0.1
	c0.1,0,0.2,0,0.3,0.1c0.2,0,0.3,0.1,0.5,0.1s0.5,0.1,0.7,0.1c0.1,0,0.2,0,0.2,0.1c0.1,0,0.2,0,0.3,0.1c0.1-0.4,0.2-0.7,0.4-1
	c0,0,0,0-0.1-0.1c-0.6-0.4-1.1-0.7-1.7-1.1c0,0-0.1,0-0.1-0.1s0-0.2,0-0.4c0,0,0,0,0.1,0c0.6,0.5,1.2,0.9,1.8,1.4
	c0.1,0.1,0.1,0,0.1,0c0.1,0,0-0.1,0-0.1c-0.1-0.1-0.2-0.1-0.3-0.2c-0.6-0.5-1.1-1-1.7-1.5l-0.1-0.1c0-0.1,0-0.3,0-0.5
	c0.2,0,0.3,0,0.4,0c0.1,0,0.1,0,0.1,0.1c0.6,0.6,1.1,1.3,1.7,1.9c0.1,0.1,0.1,0.1,0.2,0l0,0c-0.5-0.6-1-1.3-1.4-1.9l0,0
	c0.1,0,0.2,0,0.3,0s0.1,0,0.1,0.1c0.4,0.6,0.8,1.2,1.2,1.8c0.3-0.2,0.7-0.3,1-0.4c0-0.1,0-0.1,0-0.2c-0.1-0.3-0.1-0.6-0.2-0.8
	c-0.1-0.3-0.1-0.7-0.2-1v-0.1c0.1-0.1,0.2-0.2,0.2-0.3c0.1,0.8,0.2,1.6,0.3,2.4c0.2,0,0.2,0,0.2-0.2c0-0.5-0.1-0.9-0.1-1.4
	c0-0.4-0.1-0.7-0.1-1.1c0,0,0-0.1,0.1-0.1C53.3,46.4,53.4,46.4,53.4,46.3z"/>
<path class="st9" d="M49.1,39.9c0.2,0.2,0.5,0.4,0.7,0.6c0.1,0.1,0.2,0.1,0.3,0c0.3-0.1,0.5-0.3,0.8-0.4l0,0
	c-0.1,0.3-0.2,0.6-0.3,0.8c-0.1,0.1,0,0.2,0.1,0.3c0.2,0.2,0.4,0.4,0.6,0.6c-0.1,0-0.2,0-0.3,0h-0.1c-0.6-0.1-0.6-0.1-0.8,0.5
	c-0.1,0.2-0.2,0.3-0.2,0.5c-0.1-0.3-0.2-0.6-0.2-0.9c0-0.2-0.1-0.3-0.3-0.3s-0.5-0.1-0.7-0.1c0,0,0,0-0.1,0c0.3-0.2,0.5-0.3,0.7-0.4
	c0.1-0.1,0.1-0.1,0.1-0.3s-0.1-0.4-0.1-0.6C49.1,40.1,49.1,40,49.1,39.9L49.1,39.9z"/>
<path class="st9" d="M66.7,56.6c0.2,0.2,0.5,0.4,0.7,0.6c0.1,0.1,0.2,0.1,0.3,0c0.3-0.1,0.5-0.3,0.8-0.4l0,0
	c-0.1,0.3-0.2,0.6-0.3,0.8c-0.1,0.1,0,0.2,0.1,0.3c0.2,0.2,0.4,0.4,0.6,0.6c-0.1,0-0.2,0-0.3,0h-0.1c-0.6-0.1-0.6-0.1-0.8,0.5
	c-0.1,0.2-0.2,0.3-0.2,0.5c-0.1-0.3-0.2-0.6-0.2-0.9c0-0.2-0.1-0.3-0.3-0.3c-0.2,0-0.5-0.1-0.7-0.1c0,0,0,0-0.1,0
	c0.3-0.2,0.5-0.3,0.7-0.4c0.1-0.1,0.1-0.1,0.1-0.3s-0.1-0.4-0.1-0.6C66.6,56.7,66.6,56.7,66.7,56.6C66.6,56.6,66.6,56.6,66.7,56.6z"
	/>
<path class="st9" d="M46.9,58.3c0.2,0.2,0.5,0.4,0.7,0.6c0.1,0.1,0.2,0.1,0.3,0c0.3-0.1,0.5-0.3,0.8-0.4l0,0
	c-0.1,0.3-0.2,0.6-0.3,0.8c-0.1,0.1,0,0.2,0.1,0.3c0.2,0.2,0.4,0.4,0.6,0.6c-0.1,0-0.2,0-0.3,0h-0.1c-0.6-0.1-0.6-0.1-0.8,0.5
	c-0.1,0.2-0.2,0.3-0.2,0.5c-0.1-0.3-0.2-0.6-0.2-0.9c0-0.2-0.1-0.3-0.3-0.3s-0.5-0.1-0.7-0.1c0,0,0,0-0.1,0c0.3-0.2,0.5-0.3,0.7-0.4
	c0.1-0.1,0.1-0.1,0.1-0.3s-0.1-0.4-0.1-0.6C46.9,58.5,46.9,58.4,46.9,58.3L46.9,58.3z"/>
<path class="st10" d="M49.1,38c0,0-6.7,1.3-4.5,25.7c0,0-1.2,7-6.2,12.2s-6.5,5.9-11.9,8L15,73c0,0,6.4,0.2,11.9-7.9
	S31.9,42.7,49.1,38z"/>
<path class="st1" d="M77.6,65.1c2.3,0.7,4.6,1.3,6.8,2c1,0.3,1.5,0,2.2-0.8c0.8-0.8,1.7-1.6,2.6-2.3c0.8-0.6,1.7-1.1,2.6-1.6
	c0.3-0.2,0.7-0.3,1-0.4c2.7-1,5.5-1.3,8.3-0.8c1.4,0.3,2.8,0.6,4.1,1c0.8,0.2,1.5,0.7,2.2,1.1c1,0.6,2.1,1.1,3,1.8
	c1.4,1.1,2.7,2.4,3.9,3.7c0.5,0.5,0.5,1.5,0.8,2.3c0.6,1.7,1.1,3.3,1.7,5c0.6,1.4,1.1,2.9,1.9,4.2c0.6,1.1,1.5,2.1,2.2,3.1
	c0.2,0.2,0.3,0.4,0.5,0.6s0.5,0.4,0.7,0.5c0.1,0,0.1-0.1,0.2-0.2c-0.1-0.3-0.2-0.6-0.3-0.8c-1.3-1.6-2.3-3.4-3-5.4
	c-0.5-1.3-0.8-2.7-1.3-4c-0.7-1.7-1.1-3.5-1.2-5.2c-0.2-1.7,0-3.4,0.1-5.1c0-0.7,0.1-1.3,0.4-1.9c0.5-1.5,1-3,1.8-4.4
	c0.5-1,1.4-1.9,2.1-2.8c0.2-0.3,0.5-0.6,0.8-0.9c0.4-0.4,1-0.8,1.4-1.2c1.3-1.2,2.7-2.1,4.2-2.8c2-1,4.1-2,6.3-2.4
	c1-0.2,2-0.7,3.1-1c1.7-0.4,3.5-0.7,5.2-1.1c4.2-0.9,8.4-1.3,12.7-1.5c3.7-0.2,7.3-0.7,11-0.7c7.7-0.1,15.5-0.2,23.2-0.1
	c6.3,0.1,12.5,0.4,18.8,0.5c2.8,0.1,5.5,0.1,8.3,0.2c3,0,6,0.1,9,0.1c3.4-0.1,6.8-0.3,10.2-0.5c2-0.1,3.9-0.5,5.8-0.7
	c0.6-0.1,1.1-0.3,1.7-0.4c0.2,0,0.3,0.1,0.5,0.1c-0.1,0.2-0.1,0.4-0.3,0.5c-0.4,0.4-0.7,0.7-1.1,1c-1.1,0.8-2.1,1.7-3.2,2.5
	c-0.7,0.5-1.4,1-2.2,1.4c-1.5,0.8-3,1.6-4.6,2.2c-3,1.1-6,1.6-9.1,2.1c-2.6,0.4-5.1,0.5-7.7,0.5c-0.9,0-1.5,0.4-1.9,1.1
	c-0.6,1-1.5,1.4-2.6,1.6c-1.7,0.3-3.5,0.7-5.3,0.5c-0.2,0-0.7,0.3-0.8,0.5c-0.4,1.3-1.3,2-2.4,2.7c-1.8,1.3-3.9,1.4-6,1.7
	c-0.6,0.1-1.2,0.1-1.7,0.1s-0.8,0.3-0.7,0.8c0.3,1.2-0.4,1.8-1.3,2.4c-2,1.3-4.3,1.5-6.6,1.9c-1.1,0.2-2.3,0.2-3.5,0.2
	c-0.5,0-0.8,0.2-0.9,0.8c-0.1,1.1-0.7,1.8-1.5,2.4c-2.7,2.1-5.7,2.6-9,2.1c-0.2,0-0.5,0-0.7,0.2c-0.1,0.1,0,0.5,0.1,0.6
	c0.9,1.6,1.2,3.3,0.9,5.1c-0.2,1.1-1.1,2.1-2.4,1.9c-0.1,0-0.2,0-0.3,0c-0.2,0-0.5,0.1-0.7,0.2c0.1,0.2,0.1,0.5,0.2,0.7
	c0.8,1.3,0.8,2.8,0.5,4.2c-0.2,0.9-1.8,2-2.8,2c-0.9,0-1,0.1-0.6,0.9c0.8,1.7,0.9,3.5,0.4,5.3c-0.1,0.3-0.3,0.7-0.6,0.9
	c-0.6,0.6-1.2,1-1.8,1.6c-0.1,0.1-0.2,0.5-0.1,0.6c0.4,1.3,0.5,2.5-0.2,3.8c-0.4,0.6-0.6,1.2-1.1,1.7c-0.6,0.5-1.2,0.8-2,0.9
	c-0.2,0-0.5,0.2-0.7,0.3c0.1,0.2,0.2,0.5,0.3,0.7c0.4,0.6,0.8,1.3,1.3,1.9c0.2,0.3,0.6,0.6,0.8,0.9c0.4,0.6,0.8,1.2,1.2,1.8
	c0.9,1.2,1.8,2.4,2.7,3.6c1.4,2.1,2.8,4.2,4.1,6.2c0.9,1.3,1.8,2.5,2.7,3.8c0.8,1.2,1.6,2.4,2.5,3.5c0.9,1.2,1.9,2.5,3,3.5
	c1.3,1.3,2.7,2.4,4.1,3.6c0.3,0.3,0.8,0.4,1.2,0.7c1.8,1.3,3.6,2.7,5.4,4c1.6,1.1,3.2,2.2,4.7,3.3c1,0.7,2,1.6,3,2.3s2,1.4,2.9,2.1
	c1.9,1.4,3.8,2.7,5.8,4.1c1.2,0.9,2.4,1.8,3.6,2.7c1.4,0.9,2.8,1.8,4.1,2.8c1.1,0.7,2.1,1.6,3.1,2.3c0.7,0.5,1.4,0.9,2,1.3
	c2.2,1.6,4.3,3.2,6.5,4.7c1.8,1.3,3.7,2.6,5.6,4c1.1,0.8,2.2,1.7,3.4,2.6c1.3,1,2.7,1.8,4,2.8c1,0.7,2,1.5,2.9,2.2
	c0.8,0.6,1.7,1.2,2.5,1.9c0.8,0.6,1.6,1.1,2.3,1.7c0.8,0.6,1.7,1.2,2.5,1.8c1.1,0.8,2.1,1.5,3.2,2.3c2.3,1.7,4.7,3.5,7,5.2
	c0.8,0.6,1.6,1.1,2.3,1.7c0.1,0.1,0.2,0.2,0.2,0.5c-0.3-0.1-0.6,0-0.8-0.2c-1.5-0.8-3.1-1.7-4.6-2.6c-1.5-0.9-2.9-1.8-4.4-2.8
	c-1.3-0.8-2.5-1.5-3.8-2.3c-1.1-0.7-2.2-1.5-3.4-2.3c-0.7-0.5-1.5-0.9-2.2-1.3c-1.6-1.1-3.3-2.2-4.9-3.2c-0.9-0.6-1.9-1.2-2.8-1.8
	c-0.9-0.6-1.8-1.3-2.7-1.9c-0.9-0.6-1.7-1.1-2.6-1.7c-0.2-0.1-0.3-0.2-0.4-0.4c-0.3-0.2-0.5-0.4-0.8-0.6c-0.8-0.5-1.7-1.1-2.6-1.6
	c-1.2-0.8-2.4-1.5-3.5-2.3c-0.5-0.3-1-0.6-1.4-1c-0.9-0.6-1.7-1.2-2.6-1.8c-0.7-0.5-1.5-0.9-2.3-1.3c-1-0.6-2-1.3-3-2
	c-0.3-0.2-0.7-0.5-1-0.7c-1.5-0.9-3.1-1.8-4.6-2.8c-1.2-0.7-2.3-1.5-3.5-2.2c-0.6-0.4-1.2-0.7-1.9-1c-1.2-0.6-2.3-1.1-3.5-1.7
	c-1.1-0.5-2.1-1-3.2-1.4c-1.1-0.4-2.2-0.8-3.4-0.6s-1.7,1-1.1,2.1c0.7,1.5,1.5,2.9,2.7,4c0.7,0.7,1.2,1.5,1.9,2.3
	c0.8,1,1.7,2,2.6,2.9c1.2,1.3,2.3,2.6,3.5,3.8c0.8,0.9,1.7,1.7,2.6,2.5c1,0.9,1.9,1.9,2.9,2.8c1.3,1.2,2.6,2.5,3.8,3.7
	s2.4,2.4,3.6,3.5c1.7,1.6,3.4,3.2,5.1,4.8c0.8,0.8,1.6,1.6,2.5,2.4c0.8,0.8,1.7,1.6,2.6,2.4c0.9,0.9,1.9,1.8,2.8,2.7
	c1,0.9,2,1.9,3,2.8c0.6,0.6,1.2,1.2,1.8,1.7c0.8,0.8,1.7,1.7,2.5,2.5c0.9,0.9,1.9,1.7,2.8,2.6c0.9,0.9,1.7,1.8,2.5,2.7
	c0.2,0.2,0.5,0.4,0.7,0.6c0.8,0.8,1.6,1.6,2.4,2.5c0.2,0.2,0.2,0.5,0.4,0.8l-0.1,0.1c-0.3-0.2-0.7-0.4-1-0.6c-1-0.8-1.9-1.7-2.9-2.5
	c-1.2-1.1-2.5-2.1-3.7-3.1c-1.8-1.5-3.7-3-5.5-4.6c-1-0.8-1.9-1.7-2.9-2.5c-0.9-0.8-1.9-1.5-2.8-2.3c-0.1-0.1-0.1-0.1-0.2-0.1
	c-1.9-1.7-3.8-3.4-5.7-5c-0.9-0.8-1.8-1.4-2.7-2.2c-0.8-0.7-1.6-1.4-2.4-2.2c-0.9-0.8-1.7-1.7-2.6-2.4c-0.9-0.8-1.9-1.5-2.8-2.3
	c-1.3-1.1-2.5-2.2-3.7-3.3c-0.9-0.8-1.8-1.5-2.7-2.3c-0.8-0.7-1.6-1.5-2.4-2.3c-1-0.9-2-1.7-3-2.6c-1.1-0.9-2.2-1.9-3.2-2.9
	c-1.8-1.6-3.6-3.1-5.4-4.7c-0.8-0.7-1.6-1.5-2.4-2.3c-0.3-0.2-0.6-0.4-0.9-0.7c-1-0.9-2-1.9-3.1-2.8c-1-0.9-2.1-1.8-3.1-2.7
	c-1.8-1.5-3.5-3.1-5.2-4.7c-1.1-0.9-2.2-1.8-3.2-2.8c-0.6-0.6-1.4-0.9-2.2-1.2c-1.8-0.7-3.6-1.5-5.3-2.1c-2.8-1.1-5.6-2.1-8.4-3.1
	c-1.8-0.7-3.7-1.2-5.4-2c-1.6-0.8-3.3-1.3-4.9-2c-2.8-1.1-5.6-2.3-8.4-3.4c-1.5-0.7-3-1.4-4.5-2.1c-0.5-0.2-1.1-0.4-1.6-0.7
	c-1.6-0.7-3.3-1.5-4.9-2.3c-1.2-0.6-2.4-1.2-3.6-1.9c-1.3-0.8-2.5-1.6-3.7-2.5s-2.4-1.8-3.6-2.8c-1.5-1.3-2.9-2.8-4.2-4.2
	c-1.1-1.1-2-2.3-3.1-3.5c-0.8-0.9-1.6-1.9-2.4-2.8c-0.6-0.7-1.1-1.4-1.6-2.1c-0.7-0.9-1.3-1.8-2-2.7c-0.4-0.6-0.7-1.2-1.1-1.7
	c-1.1-1.6-2.2-3.2-3.2-4.9c-1.4-2.4-2.8-4.9-4.2-7.4c-0.6-1.1-1.1-2.2-1.7-3.3c-0.6-1.2-1.2-2.5-1.8-3.7c-0.5-1.1-0.9-2.2-1.5-3.2
	c-0.6-1.1-1.4-2.2-2.2-3.2c-0.9-1.1-1.8-2-2.8-3c-0.8-0.8-1.5-1.7-2.3-2.6C77,64.9,77.3,65,77.6,65.1z"/>
</svg>
